<svg width="26" height="25" viewBox="0 0 26 25" fill="none" xmlns="http://www.w3.org/2000/svg">
<path opacity="0.5" d="M24.3766 6.95505C24.3668 6.08471 24.2026 5.2225 23.8913 4.40631C23.665 3.80994 23.3038 3.27045 22.8344 2.82756C22.3782 2.37212 21.8226 2.02185 21.2085 1.80256C20.3678 1.5006 19.48 1.34079 18.5837 1.33006C17.093 1.26506 16.6463 1.25006 12.8732 1.25006C9.10133 1.25006 8.65206 1.26256 7.16264 1.33006C6.26632 1.33955 5.37838 1.49896 4.53781 1.80131C3.92345 2.02066 3.36778 2.3714 2.91194 2.82756C2.44366 3.27161 2.08307 3.81134 1.85634 4.40756C1.54557 5.22352 1.38099 6.08514 1.36974 6.95505C1.3028 8.4038 1.28735 8.83755 1.28735 12.5013C1.28735 16.165 1.30023 16.6 1.36974 18.0463C1.37992 18.9167 1.54453 19.7789 1.85634 20.595C2.08162 21.19 2.44336 21.73 2.91323 22.1713C3.36949 22.6272 3.92501 22.9783 4.5391 23.1988C5.37843 23.5013 6.26667 23.6613 7.16264 23.67C8.65206 23.7375 9.10133 23.75 12.8732 23.75C16.645 23.75 17.0955 23.7375 18.5837 23.67C19.48 23.6606 20.3679 23.5011 21.2085 23.1988C21.8181 22.9707 22.3717 22.6211 22.8338 22.1727C23.2958 21.7242 23.656 21.1868 23.8913 20.595C24.202 19.7782 24.3662 18.9157 24.3766 18.045C24.4461 16.6 24.459 16.165 24.459 12.5C24.459 8.83505 24.4461 8.40255 24.3766 6.95505Z" fill="#FFFDFA"/>
<path d="M20.3305 7.02245C20.1715 6.62187 19.9278 6.25809 19.6152 5.95453C19.3026 5.65096 18.9279 5.41436 18.5154 5.25995C17.9464 5.05569 17.3455 4.94746 16.7389 4.93995C15.7297 4.89495 15.4258 4.88495 12.8731 4.88495C10.3204 4.88495 10.0179 4.89495 9.01117 4.93995C8.40455 4.94627 7.80358 5.0541 7.23468 5.2587C6.39922 5.5712 5.7414 6.2112 5.41957 7.0212C5.20846 7.57494 5.09775 8.15869 5.09002 8.74619C5.04368 9.72619 5.03467 10.0199 5.03467 12.4999C5.03467 14.9799 5.04368 15.2749 5.09002 16.2537C5.09646 16.8424 5.20846 17.4262 5.41829 17.9787C5.57738 18.3792 5.82107 18.743 6.13368 19.0465C6.4463 19.3501 6.82091 19.5867 7.2334 19.7412C7.80368 19.9449 8.40485 20.0537 9.00989 20.0599C10.0179 20.1049 10.3204 20.1137 12.8744 20.1137C15.4284 20.1137 15.7322 20.1049 16.7402 20.0599C17.3469 20.0531 17.9478 19.9449 18.5167 19.7399C18.9292 19.5854 19.3038 19.3488 19.6164 19.0453C19.929 18.7417 20.1727 18.378 20.3318 17.9774C20.5429 17.4262 20.6536 16.8424 20.6613 16.2524C20.7077 15.2737 20.7167 14.9799 20.7167 12.4999C20.7167 10.0199 20.7077 9.72619 20.6613 8.74744C20.6543 8.15833 20.5429 7.5748 20.3318 7.02245H20.3305ZM12.8731 17.2687C12.2282 17.2687 11.5896 17.1453 10.9937 16.9057C10.3979 16.666 9.85648 16.3148 9.40044 15.8719C8.9444 15.4291 8.58266 14.9034 8.33585 14.3249C8.08904 13.7463 7.96201 13.1262 7.96201 12.4999C7.96201 11.8737 8.08904 11.2536 8.33585 10.675C8.58266 10.0964 8.9444 9.57074 9.40044 9.12793C9.85648 8.68511 10.3979 8.33385 10.9937 8.09419C11.5896 7.85454 12.2282 7.73119 12.8731 7.73119C14.1756 7.73119 15.4248 8.23361 16.3458 9.12793C17.2668 10.0222 17.7842 11.2352 17.7842 12.4999C17.7842 13.7647 17.2668 14.9776 16.3458 15.8719C15.4248 16.7663 14.1756 17.2687 12.8731 17.2687ZM17.9786 8.65619C17.6809 8.64651 17.3987 8.52486 17.1916 8.31693C16.9845 8.109 16.8687 7.83107 16.8687 7.54182C16.8687 7.25257 16.9845 6.97463 17.1916 6.76671C17.3987 6.55878 17.6809 6.43713 17.9786 6.42745C18.2764 6.43629 18.5602 6.55715 18.7679 6.76452C18.9756 6.97189 19.0922 7.24952 19.0931 7.5388C19.0939 7.82807 18.9789 8.10634 18.7724 8.31483C18.5659 8.52333 18.284 8.64573 17.9863 8.65619H17.9786Z" fill="#FFFDFA"/>
<path d="M12.8732 9.40375C12.2426 9.40375 11.6261 9.58534 11.1017 9.92556C10.5773 10.2658 10.1686 10.7493 9.9273 11.3151C9.68595 11.8809 9.62281 12.5034 9.74584 13.104C9.86888 13.7047 10.1726 14.2564 10.6185 14.6894C11.0645 15.1224 11.6326 15.4173 12.2512 15.5367C12.8697 15.6562 13.5108 15.5949 14.0935 15.3605C14.6761 15.1262 15.1741 14.7293 15.5245 14.2202C15.8749 13.711 16.0619 13.1124 16.0619 12.5C16.0619 11.679 15.7261 10.8917 15.1284 10.3111C14.5307 9.73044 13.72 9.40408 12.8745 9.40375H12.8732Z" fill="#FFFDFA"/>
<path d="M25.6561 6.33749C25.6446 5.37101 25.4617 4.41369 25.1154 3.5075C24.8636 2.84495 24.462 2.24567 23.9401 1.75375C23.4336 1.24692 22.8164 0.856919 22.134 0.612499C21.2001 0.277066 20.2139 0.0994966 19.2183 0.0874998C17.5615 0.0174999 17.0659 0 12.8731 0C8.68292 0 8.18473 0.0149999 6.52924 0.0874998C5.53355 0.0992253 4.54731 0.276803 3.61348 0.612499C2.93078 0.856305 2.31346 1.24639 1.80739 1.75375C1.28644 2.24639 0.884957 2.84546 0.63207 3.5075C0.286673 4.41434 0.103805 5.37194 0.0913992 6.33874C0.0180225 7.94749 0 8.42999 0 12.5012C0 16.5725 0.0154479 17.055 0.0913992 18.6625C0.104272 19.6287 0.285783 20.5875 0.63207 21.4937C0.883096 22.1562 1.28474 22.7562 1.8061 23.2462C2.31301 23.7526 2.93009 24.1425 3.6122 24.3875C4.54583 24.7238 5.53219 24.9014 6.52796 24.9125C8.18344 24.9862 8.68163 25 12.8731 25C17.0659 25 17.5628 24.985 19.2196 24.9125C20.2149 24.9013 21.2008 24.7237 22.134 24.3875C22.8115 24.1339 23.4267 23.7454 23.9402 23.2471C24.4537 22.7487 24.854 22.1514 25.1154 21.4937C25.4604 20.5862 25.6432 19.6287 25.6561 18.6625C25.7308 17.0537 25.7462 16.57 25.7462 12.5C25.7462 8.42874 25.7308 7.94749 25.6561 6.33749ZM22.3799 16.3287C22.3647 17.0994 22.2145 17.862 21.9358 18.5837C21.69 19.2007 21.3142 19.7609 20.8325 20.2287C20.3508 20.6964 19.7738 21.0613 19.1385 21.3C18.3955 21.5701 17.6107 21.7159 16.8174 21.7312C15.7966 21.7775 15.4709 21.7875 12.8731 21.7875C10.2753 21.7875 9.95092 21.7762 8.93008 21.7312C8.13687 21.7159 7.35208 21.57 6.60906 21.3C5.97343 21.0615 5.39614 20.6967 4.9142 20.229C4.43226 19.7612 4.0563 19.2008 3.81044 18.5837C3.53209 17.8619 3.38192 17.0994 3.36632 16.3287C3.32126 15.3387 3.30839 15.0225 3.30839 12.5C3.30839 9.97749 3.31998 9.66124 3.36632 8.67124C3.38192 7.90059 3.53209 7.1381 3.81044 6.41624C4.05623 5.79911 4.43217 5.23869 4.91412 4.77092C5.39607 4.30315 5.97339 3.93838 6.60906 3.69999C7.35206 3.42985 8.13686 3.28403 8.93008 3.26874C9.95092 3.2225 10.2779 3.2125 12.8744 3.2125C15.4709 3.2125 15.7966 3.22375 16.8174 3.26874C17.6111 3.2837 18.3964 3.42952 19.1397 3.69999C19.7749 3.93881 20.3516 4.30376 20.8331 4.77149C21.3146 5.23923 21.6901 5.79943 21.9358 6.41624C22.2151 7.13874 22.3645 7.89999 22.3799 8.67124C22.4263 9.66124 22.4378 9.97749 22.4378 12.5C22.4378 15.0225 22.4263 15.3375 22.3799 16.3287Z" fill="#FFFDFA"/>
</svg>
