<svg width="93" height="58" viewBox="0 0 93 58" fill="none" xmlns="http://www.w3.org/2000/svg">
<path d="M74.6463 17.7249C74.4142 17.7249 74.1957 17.5832 74.1086 17.3538C71.4679 10.4059 66.3702 4.6953 59.7545 1.27421C59.4719 1.12837 59.3617 0.781176 59.5072 0.498811C59.6533 0.217039 60 0.105263 60.2826 0.252208C67.1506 3.80363 72.4427 9.73203 75.184 16.9447C75.2969 17.242 75.1474 17.5743 74.8507 17.6869C74.7834 17.7125 74.7142 17.7249 74.6463 17.7249Z" fill="white"/>
<path d="M15.8493 34.8158C15.5818 34.8158 15.3419 34.6282 15.2863 34.3556C14.8649 32.2956 14.6514 30.1758 14.6514 28.0553C14.6514 20.805 17.1882 13.7383 21.7948 8.15688C21.9971 7.91197 22.3594 7.87621 22.6049 8.07934C22.8499 8.28162 22.8848 8.64432 22.6825 8.88957C18.2456 14.265 15.8021 21.0719 15.8021 28.0553C15.8021 30.0985 16.0078 32.1409 16.4133 34.1253C16.4774 34.4366 16.2763 34.7405 15.9651 34.804C15.9262 34.8122 15.8875 34.8158 15.8493 34.8158Z" fill="white"/>
<path d="M16.9241 38.724C16.6859 38.724 16.4633 38.5751 16.3808 38.3375C16.2161 37.8655 16.0633 37.3888 15.9217 36.907C15.8318 36.6022 16.006 36.2822 16.3111 36.1925C16.6167 36.103 16.9359 36.2775 17.0252 36.5817C17.1623 37.0455 17.3095 37.5048 17.4674 37.9594C17.5719 38.2594 17.4135 38.5872 17.1134 38.6917C17.0505 38.7136 16.987 38.724 16.9241 38.724Z" fill="white"/>
<mask id="mask0_1128_4920" style="mask-type:luminance" maskUnits="userSpaceOnUse" x="17" y="0" width="58" height="57">
<path d="M17.5551 28.3779C17.5551 44.0506 30.2603 56.7557 45.9329 56.7557C61.6056 56.7557 74.3108 44.0506 74.3108 28.3779C74.3108 12.7052 61.6056 3.28487e-05 45.9329 3.28487e-05C30.2603 3.28487e-05 17.5551 12.7052 17.5551 28.3779Z" fill="white"/>
</mask>
<g mask="url(#mask0_1128_4920)">
<path d="M74.3108 28.3781C74.3108 12.7054 61.6056 0.000198655 45.9329 0.000198655C30.2602 0.000198655 17.5551 12.7054 17.5551 28.3781C17.5551 44.0508 30.2602 56.756 45.9329 56.756C61.6056 56.756 74.3108 44.0508 74.3108 28.3781Z" fill="black"/>
<path d="M45.8689 21.7723C45.6307 21.7723 45.4374 21.579 45.4374 21.3408C45.4374 17.4124 48.6337 14.2163 52.5622 14.2163H61.7861C64.4863 14.2163 66.6831 12.0195 66.6831 9.31922C66.6831 6.61929 64.4863 4.4224 61.7861 4.4224C61.5479 4.4224 61.3546 4.22919 61.3546 3.99098C61.3546 3.75268 61.5479 3.55946 61.7861 3.55946C64.9623 3.55946 67.5462 6.14337 67.5462 9.31922C67.5462 12.4954 64.9623 15.0793 61.7861 15.0793H52.5622C49.1096 15.0793 46.3004 17.8883 46.3004 21.3408C46.3004 21.579 46.1071 21.7723 45.8689 21.7723Z" fill="#BBC5D0"/>
</g>
<g filter="url(#filter0_d_1128_4920)">
<path d="M57.4653 17.0983C54.5366 17.0983 51.9196 18.4271 50.1796 20.513H41.5584C39.8183 18.4271 37.2014 17.0983 34.2727 17.0983C29.0342 17.0983 24.7874 21.3451 24.7874 26.5836C24.7874 31.8222 29.0342 36.069 34.2727 36.069C37.1457 36.069 39.7148 34.7865 41.4542 32.7689H50.2838C52.0232 34.7865 54.5923 36.069 57.4653 36.069C62.7039 36.069 66.9506 31.8222 66.9506 26.5836C66.9506 21.3451 62.7039 17.0983 57.4653 17.0983Z" fill="white"/>
<path d="M64.3799 26.5837C64.3799 30.4025 61.2841 33.4983 57.4653 33.4983C53.6464 33.4983 50.5507 30.4025 50.5507 26.5837C50.5507 22.7649 53.6464 19.669 57.4653 19.669C61.2841 19.669 64.3799 22.7649 64.3799 26.5837Z" fill="#2A2D44"/>
<path d="M57.0357 24.6741C57.0357 23.8023 56.3291 23.0956 55.4573 23.0956C54.5855 23.0956 53.8788 23.8023 53.8788 24.6741C53.8788 25.5459 54.5855 26.2526 55.4573 26.2526C56.3291 26.2526 57.0357 25.5459 57.0357 24.6741Z" fill="#BBC5D0"/>
<path d="M61.0517 24.6741C61.0517 23.8023 60.345 23.0956 59.4733 23.0956C58.6015 23.0956 57.8947 23.8023 57.8947 24.6741C57.8947 25.5459 58.6015 26.2526 59.4733 26.2526C60.345 26.2526 61.0517 25.5459 61.0517 24.6741Z" fill="#BBC5D0"/>
<path d="M57.0357 28.4633C57.0357 27.5915 56.3291 26.8848 55.4573 26.8848C54.5855 26.8848 53.8788 27.5915 53.8788 28.4633C53.8788 29.3351 54.5855 30.0417 55.4573 30.0417C56.3291 30.0417 57.0357 29.3351 57.0357 28.4633Z" fill="#BBC5D0"/>
<path d="M61.0517 28.4633C61.0517 27.5915 60.345 26.8848 59.4733 26.8848C58.6015 26.8848 57.8947 27.5915 57.8947 28.4633C57.8947 29.3351 58.6015 30.0417 59.4733 30.0417C60.345 30.0417 61.0517 29.3351 61.0517 28.4633Z" fill="#BBC5D0"/>
<path d="M41.1874 26.5837C41.1874 30.4025 38.0916 33.4983 34.2728 33.4983C30.4539 33.4983 27.3581 30.4025 27.3581 26.5837C27.3581 22.7649 30.4539 19.669 34.2728 19.669C38.0916 19.669 41.1874 22.7649 41.1874 26.5837Z" fill="#2A2D44"/>
<path d="M37.9219 25.5248L35.7659 25.5293C35.5973 25.5296 35.4604 25.3932 35.4601 25.2246L35.4557 23.0687C35.4553 22.9001 35.3185 22.7637 35.1499 22.7641L33.3793 22.7676C33.2107 22.7681 33.0744 22.9049 33.0747 23.0736L33.079 25.2294C33.0794 25.3981 32.943 25.5349 32.7745 25.5353L30.6188 25.5396C30.4504 25.54 30.314 25.6769 30.3143 25.8455L30.3179 27.6161C30.3183 27.7846 30.4552 27.921 30.6237 27.9206L32.7794 27.9163C32.9478 27.916 33.0848 28.0523 33.0851 28.2209L33.0895 30.3768C33.0899 30.5454 33.2268 30.6817 33.3953 30.6814L35.1659 30.6778C35.3346 30.6774 35.4709 30.5406 35.4706 30.372L35.4662 28.216C35.4658 28.0475 35.6022 27.9105 35.7707 27.9102L37.9267 27.9059C38.0952 27.9055 38.2316 27.7686 38.2313 27.6L38.2276 25.8294C38.2273 25.6609 38.0904 25.5245 37.9219 25.5248Z" fill="#BBC5D0"/>
<path d="M48.5482 27.3606H46.2039C46.1755 27.3606 46.1524 27.3375 46.1524 27.3091V26.6214C46.1524 26.593 46.1755 26.5699 46.2039 26.5699H48.5482C48.5767 26.5699 48.5997 26.593 48.5997 26.6214V27.3091C48.5997 27.3375 48.5767 27.3606 48.5482 27.3606Z" fill="#2A2D44"/>
<path d="M45.737 27.3606H43.3927C43.3643 27.3606 43.3412 27.3375 43.3412 27.3091V26.6214C43.3412 26.593 43.3643 26.5699 43.3927 26.5699H45.737C45.7655 26.5699 45.7886 26.593 45.7886 26.6214V27.3091C45.7886 27.3375 45.7655 27.3606 45.737 27.3606Z" fill="#2A2D44"/>
<path d="M49.1795 28.0006H42.7152C42.6521 28.0006 42.6008 27.9493 42.6008 27.8862V26.0439C42.6008 25.9807 42.6521 25.9294 42.7153 25.9294H49.1795C49.2428 25.9294 49.2939 25.9807 49.2939 26.0439V27.8862C49.2939 27.9493 49.2428 28.0006 49.1795 28.0006Z" stroke="#2A2D44" stroke-width="0.666667" stroke-miterlimit="10"/>
</g>
<path d="M64.294 45.8445L65.9354 40.3604L69.5789 40.2381L65.3861 54.8841L61.7224 55.0071L63.2396 49.5273L61.4801 49.5864L59.859 55.0696L56.1957 55.1927L60.4088 40.5461L64.0518 40.4238L62.5345 45.9036L64.294 45.8445Z" fill="black"/>
<path d="M61.3032 41.6934L57.7741 53.9624L58.9714 53.9222L60.3517 49.2527C60.4956 48.767 60.9341 48.4275 61.4406 48.4105L63.2001 48.3514C63.5821 48.3399 63.9323 48.5054 64.164 48.7994C64.3956 49.0935 64.4737 49.4806 64.3735 49.8413L63.2837 53.7774L64.4908 53.737L68.0029 41.4684L66.8201 41.5082L65.4215 46.1819C65.2762 46.6662 64.8387 47.0036 64.3335 47.0206L62.5741 47.0796C62.1839 47.0952 61.8414 46.9259 61.6102 46.6317C61.3786 46.3376 61.3005 45.9505 61.4006 45.5898L62.4904 41.6537L61.3032 41.6934ZM56.1957 56.3695C55.834 56.3695 55.4911 56.2029 55.2677 55.9163C55.0361 55.6194 54.9607 55.2294 55.065 54.8677L59.2781 40.221C59.4187 39.7308 59.8595 39.3872 60.3692 39.3702L64.0123 39.2479C64.3952 39.2353 64.7381 39.3989 64.9697 39.6878C65.1779 39.3893 65.5181 39.1972 65.8959 39.1845L69.5394 39.0623C69.9246 39.048 70.2748 39.2176 70.5064 39.5143C70.7381 39.8108 70.8135 40.2003 70.71 40.562L66.5173 55.208C66.3767 55.6989 65.9358 56.0432 65.4256 56.0602L61.7619 56.1832C61.3887 56.1981 61.0467 56.0369 60.8146 55.7561C60.6059 56.0469 60.2704 56.2332 59.8985 56.2456L56.2353 56.3688C56.222 56.3693 56.2086 56.3695 56.1957 56.3695Z" fill="black"/>
<path d="M73.9744 50.9483L77.1123 39.9851L80.7761 39.8622L77.0447 52.7308L74.6794 54.5721L69.2769 54.7534L67.9375 53.0366L71.565 40.1715L75.2292 40.0483L72.0913 51.0115L73.9744 50.9483Z" fill="black"/>
<path d="M69.2319 52.7825L69.8363 53.5572L74.258 53.409L76.0207 52.0368L79.1939 41.0926L78.0076 41.1324L75.1055 51.2722C74.9653 51.7631 74.5241 52.1073 74.0139 52.1243L72.1308 52.1875C71.7442 52.1993 71.3949 52.0319 71.1637 51.7355C70.932 51.439 70.8567 51.0495 70.9601 50.6877L73.6531 41.2786L72.464 41.3186L69.2319 52.7825ZM69.2769 55.9301C68.9151 55.9301 68.5727 55.7635 68.3494 55.4771L67.01 53.7603C66.7793 53.4653 66.7034 53.0778 66.805 52.7175L70.4324 39.8523C70.5717 39.3591 71.0134 39.0128 71.5254 38.9956L75.1897 38.8724C75.5739 38.8591 75.9158 39.0234 76.1471 39.312C76.3548 39.0139 76.6949 38.8218 77.0728 38.8092L80.7365 38.6862C81.124 38.6729 81.4737 38.8425 81.7049 39.1398C81.9361 39.4373 82.0111 39.8277 81.9063 40.1899L78.175 53.0585C78.1055 53.2966 77.9631 53.5069 77.7677 53.6593L75.4024 55.5006C75.2062 55.6532 74.9672 55.7398 74.719 55.7481L69.3164 55.9294C69.3031 55.9298 69.2898 55.9301 69.2769 55.9301Z" fill="black"/>
<path d="M85.3443 45.1377L87.1245 45.0779L87.7115 43.2759L85.8067 43.3398L85.3443 45.1377ZM86.0701 48.7607L84.3106 48.8198L83.7237 50.6211L85.6072 50.5579L86.0701 48.7607ZM79.0262 54.4261L83.2185 39.7802L90.5253 39.535L91.8234 41.2521L90.7883 44.955L88.4147 46.9203L89.7127 48.6384L88.6569 52.341L86.333 54.1807L79.0262 54.4261Z" fill="black"/>
<path d="M83.7236 51.7978C83.3546 51.7978 83.0057 51.6245 82.7832 51.3282C82.5525 51.0215 82.4858 50.6216 82.6049 50.2567L83.1918 48.4554C83.3454 47.9846 83.7765 47.6604 84.271 47.6438L86.0305 47.5848C86.4111 47.5717 86.7558 47.7353 86.9879 48.0244C87.22 48.3135 87.3019 48.6952 87.2095 49.0543L86.7467 50.8514C86.6166 51.357 86.1684 51.7165 85.6468 51.7339L83.7632 51.7971C83.7498 51.7976 83.7365 51.7978 83.7236 51.7978ZM84.1139 40.9274L80.6023 53.196L85.9065 53.0177L87.6291 51.6539L88.4202 48.8798L87.4757 47.6296C87.1493 47.1971 87.1654 46.6092 87.4858 46.1978C87.3832 46.231 87.2752 46.2502 87.164 46.2539L85.3839 46.3137C85.001 46.3259 84.6585 46.1634 84.4264 45.8743C84.1948 45.5852 84.1125 45.2037 84.2049 44.8447L84.6672 43.0468C84.7974 42.541 85.245 42.1813 85.7672 42.1639L87.6719 42.1C88.0718 42.0834 88.4211 42.2622 88.6518 42.5688C88.8826 42.8756 88.9493 43.2755 88.8301 43.6404L88.2432 45.4424C88.2281 45.4898 88.2097 45.5355 88.189 45.5796L89.7541 44.2834L90.5332 41.4967L89.9549 40.7314L84.1139 40.9274ZM79.0262 55.6029C78.6645 55.6029 78.322 55.4365 78.0986 55.1501C77.867 54.8537 77.7916 54.4642 77.895 54.1024L82.0873 39.4564C82.228 38.9655 82.6688 38.6212 83.1789 38.6042L90.4858 38.359C90.882 38.3447 91.2331 38.5203 91.4639 38.8255L92.7619 40.5427C92.9834 40.8358 93.0556 41.2152 92.9563 41.5689L91.9212 45.2717C91.8569 45.5026 91.7231 45.7083 91.5388 45.8614L90.0316 47.109L90.6517 47.9293C90.8742 48.2239 90.9454 48.6061 90.8443 48.9612L89.7885 52.6637C89.7209 52.9009 89.5803 53.1108 89.3873 53.2636L87.0634 55.1033C86.8661 55.2595 86.6239 55.3483 86.3725 55.3567L79.0657 55.6022C79.0524 55.6026 79.0391 55.6029 79.0262 55.6029Z" fill="black"/>
<path d="M64.1189 45.5685L65.7604 40.0839L69.4035 39.9612L65.2109 54.6075L61.5473 54.7302L63.0641 49.2505L61.3047 49.3093L59.6842 54.7928L56.0206 54.916L60.2337 40.2692L63.8768 40.1471L62.36 45.6274L64.1189 45.5685Z" fill="white"/>
<path d="M73.7998 50.6715L76.9382 39.7082L80.6018 39.585L76.8701 52.4546L74.5045 54.2951L69.102 54.4767L67.7625 52.7605L71.391 39.8947L75.0546 39.7715L71.9162 50.7347L73.7998 50.6715Z" fill="white"/>
<path d="M85.1694 44.8617L86.9494 44.8017L87.5367 42.9991L85.6325 43.0634L85.1694 44.8617ZM85.8951 48.4837L84.1357 48.5432L83.5489 50.3441L85.4326 50.281L85.8951 48.4837ZM78.8511 54.1493L83.0431 39.5036L90.3509 39.2583L91.6482 40.976L90.6129 44.6786L88.2402 46.6433L89.5381 48.3616L88.4823 52.0647L86.1577 53.904L78.8511 54.1493Z" fill="white"/>
<path d="M4.32388 43.1459L6.66711 41.3269L12.0903 41.1448L13.4108 42.8407L12.3339 46.5449L8.71154 46.6665L9.27461 44.9065L7.3915 44.9697L5.4132 52.2269L7.19295 52.1671L7.65438 50.3906L6.80541 50.4191L7.3115 48.5992L11.8858 48.4455L10.3874 53.9455L8.04275 55.786L2.47474 55.9729L1.17674 54.2548L4.32388 43.1459Z" fill="black"/>
<path d="M2.46831 54.0123L3.04559 54.7764L7.61897 54.6229L9.35456 53.2603L10.3313 49.675L8.62968 49.7322C8.8177 50.0107 8.87836 50.3582 8.79336 50.6864L8.33186 52.4629C8.20083 52.9676 7.75319 53.3256 7.23241 53.3431L5.45274 53.4029C5.07026 53.4157 4.7219 53.2495 4.49021 52.9567C4.25859 52.6638 4.17956 52.2779 4.27786 51.9173L6.25616 44.6601C6.39176 44.1624 6.83621 43.8109 7.35193 43.7937L9.23504 43.7305C9.62985 43.7169 9.98238 43.8918 10.2132 44.1968C10.4439 44.5023 10.5119 44.9005 10.3951 45.265L10.3409 45.4344L11.4422 45.3974L12.1133 43.0893L11.5304 42.3411L7.08766 42.49L5.35069 43.8383L2.46831 54.0123ZM2.47475 57.1495C2.10656 57.1495 1.75861 56.9772 1.53573 56.6821L0.237732 54.964C0.01568 54.6701 -0.0560034 54.2888 0.0446585 53.934L3.1918 42.8251C3.26022 42.5837 3.40414 42.3703 3.60221 42.2165L5.94544 40.3975C6.14121 40.2454 6.37977 40.1592 6.62754 40.1509L12.0507 39.9689C12.4419 39.9599 12.7875 40.1249 13.0187 40.4219L14.3393 42.1176C14.5709 42.4155 14.6463 42.8067 14.5406 43.1691L13.4637 46.8733C13.3584 47.2359 13.0891 47.5177 12.7489 47.6459C12.7696 47.6682 12.7894 47.6914 12.8087 47.7155C13.0404 48.0086 13.1194 48.3942 13.021 48.7548L11.5227 54.2547C11.456 54.4988 11.313 54.7149 11.114 54.8709L8.76945 56.7115C8.5727 56.8659 8.33186 56.9538 8.08228 56.962L2.51427 57.1488C2.50096 57.1493 2.48758 57.1495 2.47475 57.1495Z" fill="black"/>
<path d="M20.3278 44.5353L18.5683 44.5944L17.5139 48.2772L19.3975 48.214L20.3278 44.5353ZM11.7685 55.6608L15.3753 42.7954L17.8444 40.9516L23.2677 40.7695L24.5657 42.4868L20.9378 55.3528L17.2951 55.4753L18.3509 51.7718L16.4674 51.835L15.4111 55.5385L11.7685 55.6608Z" fill="black"/>
<path d="M17.514 49.4538C17.1522 49.4538 16.8098 49.2874 16.5865 49.001C16.3548 48.7045 16.2794 48.315 16.3828 47.9533L17.4372 44.2704C17.5779 43.7796 18.0187 43.4353 18.5288 43.4183L20.2883 43.3592C20.6694 43.342 21.0118 43.5091 21.2439 43.7968C21.476 44.0848 21.5592 44.4651 21.4687 44.8237L20.5383 48.5023C20.4097 49.0104 19.9606 49.3724 19.4371 49.3898L17.5535 49.4531C17.5402 49.4535 17.5269 49.4538 17.514 49.4538ZM16.4002 43.4985L13.3355 54.4307L14.5148 54.3912L15.3357 51.5122C15.476 51.0209 15.9172 50.6759 16.4278 50.6589L18.3114 50.5957C18.7008 50.5808 19.0468 50.7508 19.278 51.0471C19.5097 51.3435 19.5855 51.7326 19.4826 52.0943L18.8694 54.245L20.0388 54.2057L23.2746 42.7298L22.6973 41.9659L18.2526 42.115L16.4002 43.4985ZM11.7686 56.8373C11.4082 56.8373 11.0667 56.6719 10.8428 56.3871C10.6112 56.092 10.5344 55.7043 10.6356 55.343L14.2423 42.4777C14.3126 42.2276 14.4634 42.0079 14.6711 41.8525L17.1403 40.0087C17.3329 39.8649 17.565 39.7835 17.8049 39.7755L23.2281 39.5935C23.6193 39.5799 23.9755 39.7548 24.2062 40.06L25.5042 41.7772C25.7262 42.0709 25.798 42.4514 25.6982 42.8061L22.0703 55.6721C21.931 56.1651 21.4893 56.5114 20.9773 56.5286L17.3347 56.6511C16.9468 56.6629 16.608 56.4999 16.3768 56.2108C16.1691 56.5094 15.8289 56.7017 15.4507 56.7144L11.8081 56.8366C11.7948 56.8371 11.7814 56.8373 11.7686 56.8373Z" fill="black"/>
<path d="M26.5316 42.4208L28.8766 40.5811L32.5404 40.4581L33.8384 42.1753L36.1835 40.3358L39.8471 40.2127L41.1456 41.9301L37.5177 54.7962L33.8742 54.9184L37.0328 43.9536L35.1497 44.0169L31.9911 54.9817L28.3269 55.1048L31.4855 44.1401L29.7261 44.1991L26.5674 55.1639L22.9248 55.2861L26.5316 42.4208Z" fill="black"/>
<path d="M37.0328 42.7769C37.395 42.7769 37.7375 42.9438 37.9608 43.2303C38.1924 43.5275 38.2679 43.9175 38.1635 44.2792L35.4531 53.6882L36.6187 53.6489L39.8545 42.1734L39.2768 41.409L36.6072 41.4989L34.8468 42.8797C34.9318 42.8571 35.0197 42.8438 35.1102 42.8408L36.9933 42.7776C37.0066 42.7771 37.0199 42.7769 37.0328 42.7769ZM27.5607 43.109L24.4917 54.0561L25.6734 54.0166L28.5953 43.8734C28.7364 43.3834 29.1772 43.0401 29.6865 43.023L31.446 42.964C31.8376 42.9536 32.1823 43.12 32.4135 43.4167C32.6452 43.7139 32.7205 44.1037 32.6162 44.4656L29.9057 53.8743L31.0971 53.8343L34.019 43.6911C34.0627 43.5403 34.1344 43.4034 34.2277 43.2857C34.0557 43.3462 33.871 43.3669 33.6867 43.3421C33.3737 43.3014 33.0901 43.1366 32.8998 42.8847L31.9699 41.6545L29.3004 41.7441L27.5607 43.109ZM22.9248 56.4628C22.5645 56.4628 22.223 56.2973 21.9991 56.0126C21.7674 55.7174 21.6907 55.3298 21.7918 54.9685L25.3985 42.1031C25.4661 41.8622 25.6086 41.6492 25.8054 41.495L28.1504 39.6553C28.3471 39.5011 28.5875 39.4134 28.8371 39.405L32.5008 39.2821C32.9003 39.2669 33.2477 39.4434 33.4789 39.7486L34.0548 40.51L35.4572 39.4099C35.6539 39.2559 35.8943 39.1681 36.1439 39.1598L39.8076 39.0366C40.208 39.0219 40.555 39.198 40.7857 39.5029L42.0842 41.2203C42.3062 41.5141 42.3779 41.8949 42.2782 42.2495L38.6503 55.1156C38.511 55.6085 38.0693 55.9549 37.5573 55.9721L33.9138 56.0944C33.524 56.1086 33.1875 55.9434 32.9563 55.6547C32.7486 55.9528 32.4084 56.1449 32.0306 56.1575L28.3664 56.2807C28.0157 56.2936 27.7036 56.1573 27.4733 55.9146C27.2633 56.1681 26.9508 56.3283 26.607 56.3398L22.9644 56.4621C22.951 56.4625 22.9377 56.4628 22.9248 56.4628Z" fill="black"/>
<path d="M49.687 50.7401L48.6326 54.4229L41.3258 54.6683L40.0277 52.95L43.1942 41.8611L45.5185 40.0223L52.8249 39.7769L51.7912 43.4581L46.3684 43.6401L45.7815 45.4424L51.3288 45.256L50.2744 48.9388L44.7271 49.1251L44.2642 50.9221L49.687 50.7401Z" fill="black"/>
<path d="M4.14932 42.8693L6.49228 41.0499L11.9153 40.8679L13.2359 42.564L12.1595 46.2681L8.53699 46.3897L9.10005 44.6304L7.21639 44.6936L5.23761 51.95L7.0186 51.89L7.47955 50.1139L6.63065 50.1425L7.13639 48.3226L11.71 48.1686L10.2132 53.6694L7.86806 55.5088L2.2997 55.6957L1.00177 53.9785L4.14932 42.8693Z" fill="white"/>
<path d="M20.1535 44.2592L18.3941 44.3182L17.3388 48.0006L19.223 47.9374L20.1535 44.2592ZM11.5932 55.384L15.2006 42.5193L17.67 40.6745L23.093 40.4925L24.3909 42.2108L20.7624 55.076L17.12 55.1982L18.1758 51.4957L16.2921 51.5589L15.2362 55.2614L11.5932 55.384Z" fill="white"/>
<path d="M26.3568 42.1448L28.702 40.3043L32.3655 40.1811L33.6634 41.8994L36.0086 40.059L39.6722 39.9358L40.9701 41.6542L37.3422 54.5194L33.6996 54.6415L36.858 43.6772L34.9743 43.7405L31.816 54.7048L28.1524 54.828L31.3108 43.8637L29.5513 43.9225L26.393 54.8869L22.7494 55.0095L26.3568 42.1448Z" fill="white"/>
<path d="M41.3203 52.709L41.8967 53.472L47.7373 53.2757L48.1109 51.9704L44.3038 52.0981C43.9246 52.111 43.5785 51.9476 43.3464 51.6585C43.1142 51.3694 43.0324 50.9877 43.1248 50.6287L43.5877 48.8318C43.7177 48.3262 44.1659 47.9667 44.6875 47.9492L49.3791 47.7916L49.7527 46.4862L45.821 46.6184C45.4212 46.6319 45.0709 46.4561 44.8411 46.1495C44.6104 45.843 44.5437 45.4429 44.6627 45.0779L45.2497 43.2757C45.4028 42.8052 45.8343 42.4807 46.3289 42.4642L50.8913 42.3111L51.2576 41.0069L45.9451 41.1855L44.2215 42.5488L41.3203 52.709ZM41.3258 55.8451C40.9576 55.8451 40.6097 55.6725 40.3867 55.3776L39.0887 53.6593C38.8663 53.3644 38.7951 52.9823 38.8962 52.627L42.0626 41.538C42.1306 41.3011 42.2708 41.0913 42.4643 40.9384L44.7887 39.0997C44.9859 38.9436 45.2277 38.8549 45.479 38.8464L52.7854 38.601C53.1692 38.5844 53.519 38.7557 53.7506 39.0505C53.9823 39.3458 54.0591 39.7337 53.9579 40.095L52.9242 43.7762C52.8263 44.1242 52.5781 44.399 52.2605 44.5373C52.489 44.8332 52.5629 45.2201 52.46 45.5798L51.4056 49.2626C51.2966 49.6434 51.0071 49.9358 50.6444 50.056C50.8527 50.3472 50.9175 50.7183 50.8182 51.0639L49.7638 54.7468C49.6231 55.2377 49.1823 55.5819 48.6721 55.5989L41.3654 55.8444C41.352 55.8448 41.3387 55.8451 41.3258 55.8451Z" fill="black"/>
<path d="M49.512 50.4635L48.4578 54.146L41.1506 54.3914L39.8532 52.6741L43.0191 41.585L45.3437 39.7456L52.6504 39.5003L51.6161 43.1817L46.1931 43.3638L45.6063 45.1659L51.1536 44.98L50.0988 48.662L44.5516 48.8484L44.089 50.6457L49.512 50.4635Z" fill="white"/>
<defs>
<filter id="filter0_d_1128_4920" x="24.7874" y="17.0983" width="42.1632" height="19.9707" filterUnits="userSpaceOnUse" color-interpolation-filters="sRGB">
<feFlood flood-opacity="0" result="BackgroundImageFix"/>
<feColorMatrix in="SourceAlpha" type="matrix" values="0 0 0 0 0 0 0 0 0 0 0 0 0 0 0 0 0 0 127 0" result="hardAlpha"/>
<feOffset dy="1"/>
<feComposite in2="hardAlpha" operator="out"/>
<feColorMatrix type="matrix" values="0 0 0 0 0.441667 0 0 0 0 0.441667 0 0 0 0 0.441667 0 0 0 1 0"/>
<feBlend mode="normal" in2="BackgroundImageFix" result="effect1_dropShadow_1128_4920"/>
<feBlend mode="normal" in="SourceGraphic" in2="effect1_dropShadow_1128_4920" result="shape"/>
</filter>
</defs>
</svg>
