<svg width="116" height="75" viewBox="0 0 116 75" fill="none" xmlns="http://www.w3.org/2000/svg">
<path d="M86.6462 22.7248C86.4142 22.7248 86.1957 22.5832 86.1085 22.3537C83.4678 15.4058 78.3702 9.69524 71.7544 6.27415C71.4718 6.12831 71.3617 5.78111 71.5072 5.49875C71.6533 5.21698 71.9999 5.1052 72.2826 5.25215C79.1506 8.80357 84.4426 14.732 87.1839 21.9446C87.2969 22.2419 87.1474 22.5742 86.8507 22.6868C86.7833 22.7124 86.7142 22.7248 86.6462 22.7248Z" fill="white"/>
<path d="M27.8493 39.8157C27.5818 39.8157 27.3419 39.6281 27.2863 39.3555C26.8649 37.2955 26.6514 35.1756 26.6514 33.0552C26.6514 25.8049 29.1881 18.7382 33.7948 13.1568C33.9971 12.9118 34.3594 12.8761 34.6049 13.0792C34.8499 13.2815 34.8848 13.6442 34.6825 13.8895C30.2456 19.2649 27.8021 26.0717 27.8021 33.0552C27.8021 35.0983 28.0077 37.1407 28.4133 39.1252C28.4774 39.4364 28.2763 39.7404 27.965 39.8039C27.9262 39.812 27.8875 39.8157 27.8493 39.8157Z" fill="white"/>
<path d="M28.9241 43.7239C28.6859 43.7239 28.4633 43.575 28.3808 43.3374C28.2161 42.8653 28.0633 42.3887 27.9217 41.9069C27.8318 41.6021 28.006 41.2821 28.3111 41.1924C28.6167 41.1028 28.9359 41.2773 29.0252 41.5816C29.1623 42.0454 29.3095 42.5047 29.4674 42.9592C29.5719 43.2592 29.4135 43.5871 29.1134 43.6916C29.0505 43.7135 28.987 43.7239 28.9241 43.7239Z" fill="white"/>
<mask id="mask0_134_1345" style="mask-type:luminance" maskUnits="userSpaceOnUse" x="29" y="5" width="58" height="57">
<path d="M29.5551 33.3778C29.5551 49.0505 42.2603 61.7557 57.9329 61.7557C73.6056 61.7557 86.3108 49.0505 86.3108 33.3778C86.3108 17.7051 73.6056 4.99997 57.9329 4.99997C42.2603 4.99997 29.5551 17.7051 29.5551 33.3778Z" fill="white"/>
</mask>
<g mask="url(#mask0_134_1345)">
<path d="M86.3108 33.3781C86.3108 17.7054 73.6056 5.00014 57.9329 5.00014C42.2602 5.00014 29.5551 17.7054 29.5551 33.3781C29.5551 49.0508 42.2602 61.7559 57.9329 61.7559C73.6056 61.7559 86.3108 49.0508 86.3108 33.3781Z" fill="black"/>
<path d="M57.8689 26.7723C57.6307 26.7723 57.4374 26.579 57.4374 26.3408C57.4374 22.4124 60.6337 19.2163 64.5622 19.2163H73.7861C76.4863 19.2163 78.6831 17.0195 78.6831 14.3192C78.6831 11.6193 76.4863 9.4224 73.7861 9.4224C73.5479 9.4224 73.3546 9.22919 73.3546 8.99098C73.3546 8.75268 73.5479 8.55946 73.7861 8.55946C76.9623 8.55946 79.5462 11.1434 79.5462 14.3192C79.5462 17.4954 76.9623 20.0793 73.7861 20.0793H64.5622C61.1096 20.0793 58.3004 22.8883 58.3004 26.3408C58.3004 26.579 58.1071 26.7723 57.8689 26.7723Z" fill="#BBC5D0"/>
</g>
<g filter="url(#filter0_d_134_1345)">
<path d="M69.4652 22.0984C66.5366 22.0984 63.9196 23.4272 62.1796 25.513H53.5583C51.8183 23.4272 49.2013 22.0984 46.2727 22.0984C41.0342 22.0984 36.7874 26.3451 36.7874 31.5837C36.7874 36.8223 41.0342 41.069 46.2727 41.069C49.1456 41.069 51.7147 39.7866 53.4542 37.769H62.2838C64.0232 39.7866 66.5923 41.069 69.4652 41.069C74.7038 41.069 78.9506 36.8223 78.9506 31.5837C78.9506 26.3451 74.7038 22.0984 69.4652 22.0984Z" fill="white"/>
<path d="M76.3799 31.5837C76.3799 35.4025 73.2841 38.4983 69.4653 38.4983C65.6464 38.4983 62.5507 35.4025 62.5507 31.5837C62.5507 27.7649 65.6464 24.669 69.4653 24.669C73.2841 24.669 76.3799 27.7649 76.3799 31.5837Z" fill="#2A2D44"/>
<path d="M69.0357 29.6742C69.0357 28.8024 68.3291 28.0957 67.4573 28.0957C66.5855 28.0957 65.8788 28.8024 65.8788 29.6742C65.8788 30.5459 66.5855 31.2526 67.4573 31.2526C68.3291 31.2526 69.0357 30.5459 69.0357 29.6742Z" fill="#BBC5D0"/>
<path d="M73.0517 29.6742C73.0517 28.8024 72.345 28.0957 71.4732 28.0957C70.6015 28.0957 69.8947 28.8024 69.8947 29.6742C69.8947 30.5459 70.6015 31.2526 71.4732 31.2526C72.345 31.2526 73.0517 30.5459 73.0517 29.6742Z" fill="#BBC5D0"/>
<path d="M69.0357 33.4634C69.0357 32.5916 68.3291 31.8849 67.4573 31.8849C66.5855 31.8849 65.8788 32.5916 65.8788 33.4634C65.8788 34.3352 66.5855 35.0419 67.4573 35.0419C68.3291 35.0419 69.0357 34.3352 69.0357 33.4634Z" fill="#BBC5D0"/>
<path d="M73.0517 33.4634C73.0517 32.5916 72.345 31.8849 71.4732 31.8849C70.6015 31.8849 69.8947 32.5916 69.8947 33.4634C69.8947 34.3352 70.6015 35.0419 71.4732 35.0419C72.345 35.0419 73.0517 34.3352 73.0517 33.4634Z" fill="#BBC5D0"/>
<path d="M53.1874 31.5837C53.1874 35.4025 50.0915 38.4983 46.2728 38.4983C42.4539 38.4983 39.358 35.4025 39.358 31.5837C39.358 27.7649 42.4539 24.669 46.2728 24.669C50.0915 24.669 53.1874 27.7649 53.1874 31.5837Z" fill="#2A2D44"/>
<path d="M49.9218 30.5248L47.7658 30.5293C47.5973 30.5296 47.4603 30.3932 47.46 30.2246L47.4556 28.0687C47.4553 27.9001 47.3184 27.7637 47.1498 27.7641L45.3792 27.7676C45.2107 27.7681 45.0743 27.9049 45.0746 28.0736L45.079 30.2294C45.0793 30.3981 44.9429 30.5349 44.7745 30.5353L42.6188 30.5396C42.4503 30.54 42.314 30.6769 42.3142 30.8455L42.3179 32.6161C42.3182 32.7846 42.4551 32.921 42.6236 32.9206L44.7793 32.9163C44.9478 32.916 45.0847 33.0523 45.0851 33.2209L45.0895 35.3768C45.0898 35.5454 45.2268 35.6817 45.3952 35.6814L47.1659 35.6778C47.3345 35.6774 47.4708 35.5406 47.4705 35.372L47.4661 33.216C47.4658 33.0475 47.6021 32.9105 47.7707 32.9102L49.9266 32.9059C50.0952 32.9055 50.2315 32.7686 50.2312 32.6L50.2275 30.8294C50.2272 30.6609 50.0903 30.5245 49.9218 30.5248Z" fill="#BBC5D0"/>
<path d="M60.5481 32.3607H58.2039C58.1754 32.3607 58.1523 32.3376 58.1523 32.3091V31.6214C58.1523 31.5931 58.1754 31.57 58.2039 31.57H60.5481C60.5766 31.57 60.5996 31.5931 60.5996 31.6214V32.3091C60.5996 32.3376 60.5766 32.3607 60.5481 32.3607Z" fill="#2A2D44"/>
<path d="M57.737 32.3607H55.3927C55.3643 32.3607 55.3412 32.3376 55.3412 32.3091V31.6214C55.3412 31.5931 55.3643 31.57 55.3927 31.57H57.737C57.7655 31.57 57.7886 31.5931 57.7886 31.6214V32.3091C57.7886 32.3376 57.7655 32.3607 57.737 32.3607Z" fill="#2A2D44"/>
<path d="M61.1795 33.0007H54.7152C54.652 33.0007 54.6008 32.9495 54.6008 32.8863V31.044C54.6008 30.9808 54.652 30.9295 54.7153 30.9295H61.1795C61.2427 30.9295 61.2939 30.9808 61.2939 31.044V32.8863C61.2939 32.9495 61.2427 33.0007 61.1795 33.0007Z" stroke="#2A2D44" stroke-width="0.666667" stroke-miterlimit="10"/>
</g>
<path d="M76.294 50.8446L77.9354 45.3604L81.5789 45.2382L77.3861 59.8842L73.7224 60.0072L75.2396 54.5274L73.4801 54.5865L71.859 60.0697L68.1957 60.1928L72.4088 45.5462L76.0518 45.4239L74.5345 50.9036L76.294 50.8446Z" fill="black"/>
<path d="M73.3033 46.6934L69.7741 58.9624L70.9715 58.9222L72.3518 54.2527C72.4957 53.767 72.9342 53.4275 73.4407 53.4105L75.2002 53.3514C75.5821 53.3399 75.9323 53.5054 76.164 53.7994C76.3956 54.0935 76.4738 54.4806 76.3736 54.8413L75.2838 58.7774L76.4908 58.737L80.0029 46.4684L78.8202 46.5082L77.4215 51.1819C77.2763 51.6662 76.8388 52.0036 76.3336 52.0206L74.5741 52.0796C74.1839 52.0952 73.8414 51.9259 73.6102 51.6317C73.3786 51.3376 73.3005 50.9505 73.4007 50.5898L74.4905 46.6537L73.3033 46.6934ZM68.1958 61.3695C67.834 61.3695 67.4911 61.2029 67.2678 60.9163C67.0361 60.6194 66.9607 60.2294 67.0651 59.8677L71.2781 45.221C71.4188 44.7308 71.8595 44.3872 72.3692 44.3702L76.0123 44.2479C76.3952 44.2353 76.7381 44.3989 76.9697 44.6878C77.178 44.3893 77.5181 44.1972 77.8959 44.1845L81.5394 44.0623C81.9246 44.048 82.2748 44.2176 82.5065 44.5143C82.7382 44.8108 82.8135 45.2003 82.7101 45.562L78.5173 60.208C78.3767 60.6989 77.9358 61.0432 77.4257 61.0602L73.7619 61.1832C73.3887 61.1981 73.0467 61.0369 72.8146 60.7561C72.606 61.0469 72.2704 61.2332 71.8986 61.2456L68.2353 61.3688C68.222 61.3693 68.2086 61.3695 68.1958 61.3695Z" fill="black"/>
<path d="M85.9744 55.9484L89.1123 44.9852L92.7761 44.8623L89.0448 57.7308L86.6795 59.5721L81.2769 59.7535L79.9376 58.0367L83.565 45.1716L87.2292 45.0484L84.0913 56.0116L85.9744 55.9484Z" fill="black"/>
<path d="M81.2319 57.7825L81.8363 58.5572L86.258 58.409L88.0207 57.0368L91.194 46.0926L90.0077 46.1324L87.1055 56.2722C86.9653 56.7631 86.5241 57.1073 86.0139 57.1243L84.1308 57.1875C83.7442 57.1993 83.3949 57.0319 83.1637 56.7355C82.9321 56.439 82.8567 56.0495 82.9601 55.6877L85.6531 46.2786L84.4641 46.3186L81.2319 57.7825ZM81.2769 60.9301C80.9152 60.9301 80.5728 60.7635 80.3494 60.4771L79.01 58.7603C78.7793 58.4653 78.7035 58.0778 78.805 57.7175L82.4324 44.8523C82.5717 44.3591 83.0134 44.0128 83.5254 43.9956L87.1897 43.8724C87.5739 43.8591 87.9159 44.0234 88.1471 44.312C88.3549 44.0139 88.695 43.8218 89.0728 43.8092L92.7366 43.6862C93.124 43.6729 93.4738 43.8425 93.705 44.1398C93.9362 44.4373 94.0111 44.8277 93.9063 45.1899L90.175 58.0585C90.1056 58.2966 89.9631 58.5069 89.7677 58.6593L87.4024 60.5006C87.2062 60.6532 86.9672 60.7398 86.719 60.7481L81.3164 60.9294C81.3031 60.9298 81.2898 60.9301 81.2769 60.9301Z" fill="black"/>
<path d="M97.3444 50.1377L99.1245 50.0779L99.7115 48.2759L97.8068 48.3398L97.3444 50.1377ZM98.0701 53.7607L96.3106 53.8198L95.7237 55.6211L97.6073 55.5579L98.0701 53.7607ZM91.0262 59.4261L95.2185 44.7802L102.525 44.535L103.823 46.2521L102.788 49.955L100.415 51.9203L101.713 53.6384L100.657 57.341L98.333 59.1807L91.0262 59.4261Z" fill="black"/>
<path d="M95.7237 56.7977C95.3546 56.7977 95.0058 56.6244 94.7833 56.3282C94.5526 56.0214 94.4859 55.6215 94.605 55.2566L95.1919 53.4553C95.3455 52.9846 95.7765 52.6603 96.2711 52.6438L98.0306 52.5847C98.4112 52.5716 98.7559 52.7353 98.988 53.0244C99.2201 53.3135 99.302 53.6952 99.2096 54.0542L98.7467 55.8514C98.6166 56.357 98.1685 56.7164 97.6468 56.7338L95.7632 56.797C95.7499 56.7975 95.7366 56.7977 95.7237 56.7977ZM96.1139 45.9274L92.6024 58.1959L97.9065 58.0176L99.6292 56.6539L100.42 53.8797L99.4757 52.6296C99.1493 52.197 99.1655 51.6091 99.4858 51.1978C99.3833 51.2309 99.2753 51.2502 99.1641 51.2538L97.3839 51.3136C97.001 51.3258 96.6586 51.1633 96.4265 50.8742C96.1948 50.5851 96.1126 50.2036 96.205 49.8446L96.6673 48.0467C96.7974 47.5409 97.2451 47.1813 97.7672 47.1638L99.672 47.1C100.072 47.0834 100.421 47.2622 100.652 47.5687C100.883 47.8756 100.949 48.2754 100.83 48.6404L100.243 50.4424C100.228 50.4897 100.21 50.5354 100.189 50.5796L101.754 49.2834L102.533 46.4967L101.955 45.7314L96.1139 45.9274ZM91.0262 60.6028C90.6645 60.6028 90.3221 60.4364 90.0987 60.1501C89.8671 59.8536 89.7917 59.4641 89.8951 59.1023L94.0874 44.4563C94.2281 43.9654 94.6688 43.6212 95.179 43.6042L102.486 43.359C102.882 43.3447 103.233 43.5203 103.464 43.8255L104.762 45.5427C104.983 45.8357 105.056 46.2151 104.956 46.5688L103.921 50.2716C103.857 50.5026 103.723 50.7082 103.539 50.8613L102.032 52.109L102.652 52.9293C102.874 53.2238 102.945 53.606 102.844 53.9611L101.789 57.6637C101.721 57.9009 101.58 58.1107 101.387 58.2635L99.0634 60.1032C98.8662 60.2595 98.624 60.3482 98.3726 60.3567L91.0658 60.6022C91.0524 60.6026 91.0391 60.6028 91.0262 60.6028Z" fill="black"/>
<path d="M76.1189 50.5685L77.7605 45.0839L81.4036 44.9612L77.2109 59.6075L73.5474 59.7302L75.0642 54.2505L73.3048 54.3093L71.6842 59.7928L68.0206 59.916L72.2338 45.2692L75.8768 45.1471L74.36 50.6274L76.1189 50.5685Z" fill="white"/>
<path d="M85.7999 55.6715L88.9383 44.7082L92.6018 44.585L88.8701 57.4546L86.5045 59.2951L81.102 59.4767L79.7625 57.7605L83.391 44.8947L87.0546 44.7715L83.9162 55.7347L85.7999 55.6715Z" fill="white"/>
<path d="M97.1694 49.8617L98.9494 49.8017L99.5367 47.9991L97.6325 48.0634L97.1694 49.8617ZM97.8951 53.4837L96.1357 53.5431L95.5489 55.3441L97.4326 55.281L97.8951 53.4837ZM90.8511 59.1493L95.0431 44.5036L102.351 44.2583L103.648 45.976L102.613 49.6786L100.24 51.6433L101.538 53.3616L100.482 57.0647L98.1577 58.904L90.8511 59.1493Z" fill="white"/>
<path d="M16.3239 48.1458L18.6671 46.3268L24.0903 46.1448L25.4108 47.8406L24.3339 51.5448L20.7116 51.6664L21.2746 49.9064L19.3915 49.9696L17.4132 57.2268L19.193 57.167L19.6544 55.3905L18.8054 55.419L19.3115 53.5992L23.8858 53.4454L22.3874 58.9454L20.0428 60.7859L14.4748 60.9728L13.1768 59.2547L16.3239 48.1458Z" fill="black"/>
<path d="M14.4683 59.0123L15.0456 59.7764L19.619 59.6229L21.3546 58.2603L22.3313 54.675L20.6297 54.7322C20.8177 55.0107 20.8784 55.3582 20.7934 55.6864L20.3319 57.4629C20.2008 57.9676 19.7532 58.3256 19.2324 58.3431L17.4527 58.4029C17.0703 58.4157 16.7219 58.2495 16.4902 57.9567C16.2586 57.6638 16.1796 57.2779 16.2779 56.9173L18.2562 49.6601C18.3918 49.1624 18.8362 48.8109 19.3519 48.7937L21.235 48.7305C21.6299 48.7169 21.9824 48.8918 22.2132 49.1968C22.4439 49.5023 22.5119 49.9005 22.3951 50.265L22.3409 50.4344L23.4422 50.3974L24.1133 48.0893L23.5304 47.3411L19.0877 47.49L17.3507 48.8383L14.4683 59.0123ZM14.4748 62.1495C14.1066 62.1495 13.7586 61.9772 13.5357 61.6821L12.2377 59.964C12.0157 59.6701 11.944 59.2888 12.0447 58.934L15.1918 47.8251C15.2602 47.5837 15.4041 47.3703 15.6022 47.2165L17.9454 45.3975C18.1412 45.2454 18.3798 45.1592 18.6275 45.1509L24.0507 44.9689C24.4419 44.9599 24.7875 45.1249 25.0187 45.4219L26.3393 47.1176C26.5709 47.4155 26.6463 47.8067 26.5406 48.1691L25.4637 51.8733C25.3584 52.2359 25.0891 52.5177 24.7489 52.6459C24.7696 52.6682 24.7894 52.6914 24.8087 52.7155C25.0404 53.0086 25.1194 53.3942 25.021 53.7548L23.5227 59.2547C23.456 59.4988 23.313 59.7149 23.114 59.8709L20.7694 61.7115C20.5727 61.8659 20.3319 61.9538 20.0823 61.962L14.5143 62.1488C14.501 62.1493 14.4876 62.1495 14.4748 62.1495Z" fill="black"/>
<path d="M32.3278 49.5353L30.5683 49.5944L29.5139 53.2772L31.3975 53.214L32.3278 49.5353ZM23.7685 60.6607L27.3753 47.7953L29.8444 45.9515L35.2676 45.7695L36.5656 47.4867L32.9377 60.3528L29.2951 60.4753L30.3509 56.7718L28.4674 56.8349L27.4111 60.5385L23.7685 60.6607Z" fill="black"/>
<path d="M29.5139 54.4538C29.1522 54.4538 28.8098 54.2874 28.5864 54.001C28.3547 53.7046 28.2794 53.3151 28.3828 52.9533L29.4372 49.2705C29.5779 48.7797 30.0186 48.4354 30.5288 48.4183L32.2883 48.3593C32.6693 48.3421 33.0117 48.5092 33.2438 48.7969C33.476 49.0848 33.5592 49.4652 33.4687 49.8237L32.5383 53.5024C32.4096 54.0105 31.9606 54.3724 31.4371 54.3899L29.5535 54.4531C29.5401 54.4536 29.5268 54.4538 29.5139 54.4538ZM28.4002 48.4985L25.3354 59.4307L26.5148 59.3912L27.3357 56.5122C27.476 56.0209 27.9171 55.676 28.4278 55.659L30.3114 55.5958C30.7007 55.5808 31.0468 55.7509 31.278 56.0471C31.5096 56.3436 31.5855 56.7327 31.4825 57.0944L30.8694 59.245L32.0387 59.2057L35.2745 47.7299L34.6973 46.9659L30.2525 47.1151L28.4002 48.4985ZM23.7685 61.8373C23.4082 61.8373 23.0667 61.6719 22.8428 61.3871C22.6112 61.0921 22.5344 60.7043 22.6355 60.3431L26.2423 47.4777C26.3126 47.2277 26.4634 47.008 26.6711 46.8526L29.1403 45.0088C29.3329 44.8649 29.565 44.7836 29.8049 44.7755L35.2281 44.5935C35.6192 44.5799 35.9755 44.7549 36.2062 45.06L37.5042 46.7772C37.7262 47.071 37.7979 47.4515 37.6982 47.8061L34.0703 60.6722C33.931 61.1652 33.4893 61.5115 32.9773 61.5287L29.3347 61.6512C28.9468 61.6629 28.608 61.5 28.3768 61.2109C28.1691 61.5094 27.8289 61.7018 27.4507 61.7144L23.808 61.8366C23.7947 61.8371 23.7814 61.8373 23.7685 61.8373Z" fill="black"/>
<path d="M38.5316 47.4208L40.8766 45.5811L44.5404 45.4582L45.8384 47.1754L48.1835 45.3359L51.8471 45.2127L53.1456 46.9301L49.5177 59.7963L45.8742 59.9185L49.0328 48.9537L47.1497 49.0169L43.9911 59.9817L40.3269 60.1049L43.4855 49.1401L41.7261 49.1991L38.5674 60.164L34.9248 60.2862L38.5316 47.4208Z" fill="black"/>
<path d="M49.0328 47.7769C49.395 47.7769 49.7375 47.9438 49.9608 48.2303C50.1924 48.5275 50.2679 48.9175 50.1635 49.2792L47.4531 58.6882L48.6187 58.6489L51.8545 47.1734L51.2768 46.409L48.6072 46.4989L46.8468 47.8797C46.9318 47.8571 47.0197 47.8438 47.1102 47.8408L48.9933 47.7776C49.0066 47.7771 49.0199 47.7769 49.0328 47.7769ZM39.5607 48.109L36.4917 59.0561L37.6734 59.0166L40.5953 48.8734C40.7364 48.3834 41.1772 48.0401 41.6865 48.023L43.446 47.964C43.8376 47.9536 44.1823 48.12 44.4135 48.4167C44.6452 48.7139 44.7205 49.1037 44.6162 49.4656L41.9057 58.8743L43.0971 58.8343L46.019 48.6911C46.0627 48.5403 46.1344 48.4034 46.2277 48.2857C46.0557 48.3462 45.871 48.3669 45.6867 48.3421C45.3737 48.3014 45.0901 48.1366 44.8998 47.8847L43.9699 46.6545L41.3004 46.7441L39.5607 48.109ZM34.9248 61.4628C34.5645 61.4628 34.223 61.2973 33.9991 61.0126C33.7674 60.7174 33.6907 60.3298 33.7918 59.9685L37.3985 47.1031C37.4661 46.8622 37.6086 46.6492 37.8054 46.495L40.1504 44.6553C40.3471 44.5011 40.5875 44.4134 40.8371 44.405L44.5008 44.2821C44.9003 44.2669 45.2477 44.4434 45.4789 44.7486L46.0548 45.51L47.4572 44.4099C47.6539 44.2559 47.8943 44.1681 48.1439 44.1598L51.8076 44.0366C52.208 44.0219 52.555 44.198 52.7857 44.5029L54.0842 46.2203C54.3062 46.5141 54.3779 46.8949 54.2782 47.2495L50.6503 60.1156C50.511 60.6085 50.0693 60.9549 49.5573 60.9721L45.9138 61.0944C45.524 61.1086 45.1875 60.9434 44.9563 60.6547C44.7486 60.9528 44.4084 61.1449 44.0306 61.1575L40.3664 61.2807C40.0157 61.2936 39.7036 61.1573 39.4733 60.9146C39.2633 61.1681 38.9508 61.3283 38.607 61.3398L34.9644 61.4621C34.951 61.4625 34.9377 61.4628 34.9248 61.4628Z" fill="black"/>
<path d="M61.6869 55.7401L60.6326 59.4229L53.3258 59.6683L52.0277 57.95L55.1942 46.8611L57.5185 45.0223L64.8249 44.7769L63.7911 48.4581L58.3684 48.6401L57.7814 50.4424L63.3287 50.256L62.2743 53.9388L56.7271 54.1251L56.2642 55.9221L61.6869 55.7401Z" fill="black"/>
<path d="M16.1493 47.8693L18.4923 46.0499L23.9153 45.8679L25.2359 47.564L24.1595 51.2681L20.537 51.3897L21.1001 49.6304L19.2164 49.6936L17.2376 56.95L19.0186 56.89L19.4796 55.1139L18.6307 55.1425L19.1364 53.3226L23.71 53.1686L22.2132 58.6694L19.8681 60.5088L14.2997 60.6957L13.0018 58.9785L16.1493 47.8693Z" fill="white"/>
<path d="M32.1535 49.2592L30.3941 49.3182L29.3388 53.0006L31.223 52.9374L32.1535 49.2592ZM23.5932 60.384L27.2006 47.5193L29.67 45.6745L35.093 45.4925L36.3909 47.2108L32.7624 60.076L29.12 60.1982L30.1758 56.4957L28.2921 56.5589L27.2362 60.2614L23.5932 60.384Z" fill="white"/>
<path d="M38.3568 47.1448L40.702 45.3043L44.3655 45.1811L45.6634 46.8994L48.0086 45.059L51.6722 44.9358L52.9701 46.6542L49.3422 59.5194L45.6996 59.6415L48.858 48.6772L46.9743 48.7405L43.816 59.7048L40.1524 59.828L43.3108 48.8637L41.5513 48.9225L38.393 59.8869L34.7494 60.0095L38.3568 47.1448Z" fill="white"/>
<path d="M53.3203 57.709L53.8967 58.472L59.7373 58.2757L60.1109 56.9704L56.3038 57.0981C55.9246 57.111 55.5785 56.9476 55.3464 56.6585C55.1142 56.3694 55.0324 55.9877 55.1248 55.6287L55.5877 53.8318C55.7177 53.3262 56.1659 52.9667 56.6875 52.9492L61.3791 52.7916L61.7527 51.4862L57.821 51.6184C57.4212 51.6319 57.0709 51.4561 56.8411 51.1495C56.6104 50.843 56.5437 50.4429 56.6627 50.0779L57.2497 48.2757C57.4028 47.8052 57.8343 47.4807 58.3289 47.4642L62.8913 47.3111L63.2576 46.0069L57.9451 46.1855L56.2215 47.5488L53.3203 57.709ZM53.3258 60.8451C52.9576 60.8451 52.6097 60.6725 52.3867 60.3776L51.0887 58.6593C50.8663 58.3644 50.7951 57.9823 50.8962 57.627L54.0626 46.538C54.1306 46.3011 54.2708 46.0913 54.4643 45.9384L56.7887 44.0997C56.9859 43.9436 57.2277 43.8549 57.479 43.8464L64.7854 43.601C65.1692 43.5844 65.519 43.7557 65.7506 44.0505C65.9823 44.3458 66.0591 44.7337 65.9579 45.095L64.9242 48.7762C64.8263 49.1242 64.5781 49.399 64.2605 49.5373C64.489 49.8332 64.5629 50.2201 64.46 50.5798L63.4056 54.2626C63.2966 54.6434 63.0071 54.9358 62.6444 55.056C62.8527 55.3472 62.9175 55.7183 62.8182 56.0639L61.7638 59.7468C61.6231 60.2377 61.1823 60.5819 60.6721 60.5989L53.3654 60.8444C53.352 60.8448 53.3387 60.8451 53.3258 60.8451Z" fill="black"/>
<path d="M61.512 55.4635L60.4577 59.146L53.1505 59.3914L51.8531 57.6741L55.0191 46.585L57.3437 44.7456L64.6504 44.5003L63.6161 48.1817L58.1931 48.3638L57.6063 50.1659L63.1535 49.98L62.0988 53.662L56.5515 53.8484L56.089 55.6457L61.512 55.4635Z" fill="white"/>
<path d="M30.4674 63.6262L28.9778 63.6766L29.13 63.08L30.6262 63.0294L31.2534 63.0082L32.7365 62.958L32.5843 63.5546L31.0947 63.6049L30.0709 67.7004L29.4436 67.7216L30.4674 63.6262Z" fill="#FDF9F9"/>
<path d="M33.3342 62.6225L33.9222 62.6026L33.3302 64.9552L33.3433 64.9548C33.4624 64.7844 33.6258 64.6441 33.8335 64.5342C34.0412 64.4241 34.2648 64.3651 34.5044 64.357C34.6525 64.352 34.7893 64.3704 34.9147 64.4121C35.0402 64.4539 35.142 64.5218 35.2205 64.6153C35.2986 64.7091 35.3489 64.8312 35.3708 64.9815C35.3929 65.1319 35.3769 65.311 35.323 65.5186L34.8207 67.5398L34.2326 67.5597L34.6967 65.7042C34.7306 65.5584 34.7413 65.4344 34.7292 65.3318C34.717 65.2294 34.6872 65.1471 34.64 65.085C34.5927 65.0233 34.5294 64.9794 34.4498 64.9535C34.3703 64.9278 34.2849 64.9164 34.1935 64.9195C34.0715 64.9236 33.9527 64.9473 33.8371 64.9906C33.7215 65.034 33.6143 65.1001 33.5153 65.1889C33.4163 65.2776 33.3288 65.389 33.2529 65.523C33.1769 65.657 33.1157 65.8145 33.0691 65.9957L32.6646 67.6127L32.0766 67.6326L33.3342 62.6225Z" fill="#FDF9F9"/>
<path d="M38.4702 65.6028C38.4981 65.4705 38.5075 65.3498 38.4981 65.2405C38.4886 65.1314 38.4579 65.0372 38.4056 64.9577C38.3533 64.8785 38.2773 64.8175 38.1773 64.775C38.0773 64.7323 37.9527 64.7135 37.8036 64.7185C37.6587 64.7234 37.5197 64.7556 37.3863 64.8149C37.2528 64.8741 37.1317 64.9495 37.0231 65.0407C36.9144 65.132 36.8233 65.2325 36.7496 65.3423C36.676 65.4522 36.6266 65.56 36.6016 65.666L38.4702 65.6028ZM36.4824 66.1431C36.4496 66.2801 36.4487 66.4039 36.4797 66.5145C36.5106 66.6252 36.5642 66.7187 36.6405 66.7949C36.7168 66.8713 36.8126 66.9294 36.9279 66.9692C37.0433 67.0091 37.1686 67.0267 37.3042 67.0221C37.4879 67.0159 37.6578 66.9675 37.814 66.8767C37.9703 66.7861 38.1239 66.6681 38.2748 66.5228L38.628 66.8525C38.1963 67.2921 37.6865 67.5218 37.0984 67.5417C36.8545 67.55 36.6447 67.5154 36.4692 67.4382C36.2934 67.3608 36.1552 67.2506 36.0543 67.1071C35.9535 66.9638 35.8902 66.7931 35.8651 66.5944C35.8398 66.396 35.8578 66.1797 35.9191 65.9453C35.976 65.7113 36.0702 65.4924 36.2018 65.2886C36.3333 65.0848 36.4891 64.9066 36.6692 64.7537C36.8492 64.6009 37.0474 64.4792 37.2639 64.3885C37.48 64.2981 37.7037 64.2489 37.9346 64.241C38.209 64.2317 38.429 64.2726 38.5944 64.3633C38.7599 64.4541 38.8837 64.5759 38.9663 64.7286C39.0487 64.8813 39.0921 65.0551 39.096 65.2499C39.0999 65.4447 39.0774 65.6437 39.0284 65.8468L38.9716 66.059L36.4824 66.1431Z" fill="#FDF9F9"/>
<path d="M43.9023 67.2326L43.3143 67.2525L43.4341 66.7688L43.4212 66.7691C43.3019 66.9397 43.1385 67.0799 42.9308 67.1898C42.7231 67.2998 42.4994 67.3589 42.2599 67.367C42.1074 67.3722 41.9695 67.3538 41.8463 67.312C41.723 67.2702 41.6222 67.2024 41.5439 67.1086C41.4656 67.015 41.4154 66.8928 41.3935 66.7425C41.3714 66.5921 41.3852 66.4132 41.4348 66.2056L41.9438 64.1842L42.5318 64.1643L42.0676 66.0199C42.0293 66.1657 42.0163 66.2899 42.0287 66.3924C42.0407 66.4949 42.0717 66.5772 42.1211 66.639C42.1704 66.7008 42.235 66.7447 42.3144 66.7704C42.3939 66.7963 42.4794 66.8075 42.571 66.8045C42.8148 66.7962 43.0399 66.7065 43.2458 66.5352C43.4517 66.3641 43.6016 66.0951 43.6952 65.7283L44.0997 64.1113L44.6878 64.0913L43.9023 67.2326Z" fill="#FDF9F9"/>
<path d="M45.5764 64.0614L46.1645 64.0415L46.0445 64.5251L46.0576 64.5248C46.1767 64.3543 46.3401 64.2141 46.5479 64.1041C46.7555 63.9941 46.9791 63.935 47.2187 63.927C47.3668 63.9219 47.5036 63.9404 47.6291 63.9821C47.7545 64.0238 47.8563 64.0917 47.9348 64.1853C48.013 64.279 48.0632 64.4011 48.0852 64.5515C48.1073 64.7018 48.0913 64.8809 48.0374 65.0885L47.535 67.1097L46.947 67.1296L47.4111 65.2741C47.4449 65.1283 47.4557 65.0043 47.4435 64.9018C47.4312 64.7992 47.4015 64.717 47.3543 64.655C47.307 64.5932 47.2437 64.5493 47.1641 64.5235C47.0847 64.4977 46.9992 64.4864 46.9077 64.4895C46.7857 64.4936 46.667 64.5173 46.5514 64.5605C46.4358 64.6039 46.3286 64.67 46.2296 64.7588C46.1305 64.8476 46.0431 64.9589 45.9672 65.093C45.8912 65.2269 45.83 65.3845 45.7834 65.5656L45.379 67.1826L44.7908 67.2026L45.5764 64.0614Z" fill="#FDF9F9"/>
<path d="M49.4015 62.8149C49.4322 62.6956 49.5006 62.5914 49.6061 62.5024C49.7116 62.4134 49.8232 62.3669 49.9408 62.3629C50.0585 62.359 50.1494 62.3986 50.2137 62.4819C50.278 62.5651 50.2947 62.6664 50.2639 62.7857C50.233 62.9051 50.1647 63.0092 50.0593 63.0982C49.9537 63.1872 49.8422 63.2336 49.7246 63.2377C49.6069 63.2416 49.516 63.202 49.4517 63.1188C49.3873 63.0356 49.3706 62.9343 49.4015 62.8149ZM49.2548 63.937L49.8429 63.917L49.0573 67.0582L48.4693 67.0781L49.2548 63.937Z" fill="#FDF9F9"/>
<path d="M50.4047 63.8981L51.0841 63.8751L51.4074 66.2494L52.9005 63.8137L53.5277 63.7925L51.527 66.9747L50.8801 66.9966L50.4047 63.8981Z" fill="#FDF9F9"/>
<path d="M56.0193 65.0092C56.0473 64.8769 56.0566 64.7562 56.0472 64.6469C56.0378 64.5378 56.007 64.4435 55.9547 64.3641C55.9025 64.285 55.8264 64.2239 55.7264 64.1814C55.6264 64.1387 55.5018 64.1199 55.3527 64.125C55.2079 64.1298 55.0688 64.162 54.9354 64.2213C54.8019 64.2805 54.6808 64.3558 54.5722 64.4471C54.4635 64.5384 54.3724 64.639 54.2987 64.7488C54.2251 64.8586 54.1757 64.9665 54.1507 65.0724L56.0193 65.0092ZM54.0315 65.5496C53.9987 65.6865 53.9978 65.8103 54.0288 65.9209C54.0598 66.0317 54.1133 66.125 54.1897 66.2013C54.2659 66.2776 54.3617 66.3358 54.477 66.3757C54.5923 66.4155 54.7177 66.4331 54.8533 66.4285C55.037 66.4223 55.207 66.3739 55.3632 66.2832C55.5194 66.1926 55.6729 66.0745 55.824 65.9293L56.1771 66.2589C55.7454 66.6985 55.2357 66.9283 54.6476 66.9481C54.4036 66.9564 54.1938 66.9218 54.0183 66.8446C53.8426 66.7673 53.7043 66.657 53.6034 66.5135C53.5025 66.3702 53.4394 66.1994 53.4143 66.0009C53.3889 65.8024 53.4069 65.5861 53.4683 65.3518C53.525 65.1177 53.6193 64.8988 53.7509 64.695C53.8824 64.4912 54.0383 64.313 54.2183 64.1601C54.3984 64.0073 54.5966 63.8855 54.813 63.7949C55.0292 63.7045 55.2528 63.6552 55.4837 63.6474C55.7581 63.6382 55.9781 63.679 56.1436 63.7697C56.309 63.8605 56.4329 63.9823 56.5154 64.135C56.5979 64.2878 56.6412 64.4615 56.6451 64.6562C56.649 64.8511 56.6265 65.0501 56.5774 65.2532L56.5208 65.4654L54.0315 65.5496Z" fill="#FDF9F9"/>
<path d="M57.6765 63.6522L58.2646 63.6323L58.1446 64.1159L58.1577 64.1155C58.2767 63.9451 58.4359 63.805 58.6348 63.6953C58.8338 63.5857 59.0314 63.5274 59.2274 63.5208C59.3232 63.5176 59.4066 63.5279 59.4776 63.5518L59.2875 64.1956C59.2411 64.184 59.1955 64.1747 59.1509 64.1674C59.1061 64.1601 59.0597 64.1573 59.0119 64.159C58.7243 64.1686 58.4843 64.2579 58.2917 64.4265C58.0989 64.5951 57.9592 64.8516 57.8725 65.1963L57.479 66.7734L56.8909 66.7934L57.6765 63.6522Z" fill="#FDF9F9"/>
<path d="M61.5403 64.3035C61.4937 64.2175 61.4268 64.1462 61.34 64.0901C61.253 64.0338 61.1355 64.0082 60.9874 64.0132C60.848 64.018 60.7195 64.0519 60.6017 64.115C60.4839 64.1781 60.412 64.2672 60.386 64.3819C60.3624 64.4747 60.3724 64.5489 60.4161 64.6043C60.4596 64.6598 60.5176 64.7038 60.5898 64.7364C60.662 64.7691 60.7407 64.7927 60.8259 64.8073C60.9109 64.822 60.9855 64.8348 61.0494 64.8457C61.1677 64.8724 61.2768 64.9059 61.3764 64.9463C61.4759 64.9868 61.5576 65.041 61.6216 65.1089C61.6854 65.1769 61.7268 65.2609 61.746 65.3609C61.7649 65.4611 61.7575 65.584 61.7237 65.7297C61.6775 65.9065 61.6027 66.0591 61.4994 66.1874C61.3959 66.3157 61.2743 66.4217 61.1346 66.5053C60.995 66.5888 60.8458 66.6508 60.6872 66.6912C60.5286 66.7316 60.3731 66.7545 60.2207 66.7597C59.9636 66.7683 59.7492 66.7361 59.5775 66.6631C59.4057 66.59 59.2685 66.4501 59.1662 66.2433L59.6981 65.8573C59.7698 65.9514 59.8563 66.0338 59.9572 66.1048C60.0582 66.1759 60.1941 66.2085 60.3649 66.2028C60.518 66.1976 60.6684 66.1608 60.8156 66.0922C60.9629 66.0237 61.0553 65.921 61.0928 65.7839C61.1158 65.6955 61.1075 65.6236 61.0681 65.5679C61.0286 65.5124 60.9747 65.4692 60.9063 65.4387C60.8379 65.4082 60.7621 65.3843 60.679 65.3675C60.5959 65.3506 60.5246 65.3365 60.4648 65.3254C60.3458 65.2988 60.2338 65.2675 60.1289 65.2317C60.024 65.1958 59.9359 65.1462 59.8647 65.0829C59.7934 65.0196 59.745 64.9381 59.7193 64.8381C59.6936 64.7383 59.7001 64.6132 59.7389 64.4629C59.7791 64.2996 59.8486 64.1559 59.9472 64.032C60.0458 63.9083 60.1606 63.8047 60.2916 63.7214C60.4224 63.6381 60.5642 63.5741 60.7168 63.5296C60.8693 63.485 61.0176 63.4603 61.1613 63.4554C61.3704 63.4483 61.5608 63.4814 61.7326 63.5544C61.9044 63.6274 62.0233 63.7549 62.0896 63.9366L61.5403 64.3035Z" fill="#FDF9F9"/>
<path d="M64.9701 64.7066C64.9981 64.5742 65.0074 64.4535 64.9979 64.3442C64.9886 64.2351 64.9577 64.1409 64.9054 64.0615C64.8532 63.9823 64.7772 63.9212 64.6772 63.8787C64.5772 63.836 64.4525 63.8172 64.3034 63.8222C64.1587 63.8272 64.0196 63.8593 63.8861 63.9186C63.7527 63.9779 63.6316 64.0532 63.523 64.1444C63.4143 64.2358 63.3231 64.3363 63.2496 64.446C63.1759 64.5559 63.1265 64.6638 63.1016 64.7697L64.9701 64.7066ZM62.9823 65.2469C62.9494 65.3839 62.9486 65.5076 62.9796 65.6182C63.0105 65.7289 63.0641 65.8224 63.1405 65.8986C63.2167 65.975 63.3126 66.0331 63.4278 66.0729C63.5432 66.1128 63.6685 66.1305 63.8041 66.1259C63.9878 66.1196 64.1577 66.0713 64.3139 65.9804C64.4701 65.8898 64.6237 65.7718 64.7748 65.6265L65.1278 65.9562C64.6963 66.3958 64.1865 66.6256 63.5984 66.6454C63.3544 66.6537 63.1446 66.6191 62.9691 66.5419C62.7934 66.4645 62.6551 66.3543 62.5542 66.2109C62.4533 66.0675 62.3902 65.8968 62.3651 65.6982C62.3396 65.4997 62.3576 65.2834 62.419 65.0491C62.4758 64.815 62.5701 64.5961 62.7017 64.3923C62.8331 64.1886 62.9891 64.0103 63.1691 63.8574C63.3491 63.7047 63.5473 63.5829 63.7637 63.4922C63.9799 63.4018 64.2036 63.3526 64.4345 63.3447C64.7088 63.3355 64.9288 63.3763 65.0943 63.467C65.2597 63.5578 65.3837 63.6796 65.4662 63.8324C65.5487 63.9851 65.592 64.1588 65.5959 64.3536C65.5999 64.5484 65.5773 64.7474 65.5283 64.9505L65.4716 65.1627L62.9823 65.2469Z" fill="#FDF9F9"/>
<path d="M68.5279 64.8425C68.4881 65.0015 68.4747 65.1476 68.4879 65.2807C68.5009 65.414 68.5392 65.5266 68.6026 65.6186C68.6659 65.7106 68.7543 65.7822 68.868 65.833C68.9814 65.884 69.1167 65.9068 69.2734 65.9014C69.4303 65.8962 69.5781 65.8638 69.7173 65.8043C69.8563 65.745 69.9813 65.6662 70.0923 65.5682C70.2032 65.4704 70.2999 65.3531 70.3827 65.2167C70.4653 65.0803 70.5266 64.9326 70.5662 64.7736C70.606 64.6145 70.6193 64.4684 70.6062 64.3352C70.5931 64.2021 70.5538 64.0896 70.4882 63.9975C70.4227 63.9056 70.3343 63.8341 70.2229 63.7831C70.1116 63.7321 69.9774 63.7092 69.8207 63.7145C69.6639 63.7199 69.5159 63.7522 69.3769 63.8117C69.2377 63.8712 69.1116 63.95 68.9986 64.0479C68.8855 64.1459 68.7888 64.2631 68.7082 64.3993C68.6277 64.5358 68.5675 64.6834 68.5279 64.8425ZM67.9006 64.8637C67.957 64.6341 68.053 64.4183 68.1887 64.2166C68.3243 64.0148 68.4857 63.8363 68.6724 63.681C68.8592 63.526 69.0631 63.4017 69.2842 63.3088C69.5051 63.2159 69.731 63.1656 69.9619 63.1578C70.1927 63.1499 70.3969 63.1858 70.5745 63.2652C70.752 63.3447 70.8966 63.457 71.0082 63.6021C71.1197 63.7473 71.1927 63.9178 71.2268 64.1138C71.261 64.3098 71.2499 64.5227 71.1935 64.7523C71.1326 64.9822 71.0355 65.1991 70.9018 65.4028C70.768 65.6067 70.6079 65.7852 70.4213 65.9382C70.2348 66.0914 70.031 66.2142 69.81 66.3072C69.589 66.4 69.3631 66.4504 69.1323 66.4583C68.9014 66.466 68.6962 66.4302 68.5163 66.3509C68.3366 66.2716 68.1919 66.1605 68.0823 66.0173C67.9726 65.8743 67.8998 65.7038 67.8638 65.5055C67.8275 65.3076 67.8398 65.0936 67.9006 64.8637Z" fill="#FDF9F9"/>
<path d="M72.4232 63.6659L71.7567 63.6884L71.8869 63.1716L72.5533 63.149L72.7305 62.4465C72.8384 62.0267 72.9963 61.7114 73.2038 61.5007C73.4115 61.29 73.7083 61.178 74.0945 61.165C74.1596 61.1628 74.2276 61.1628 74.2988 61.1647C74.3698 61.1667 74.4432 61.1774 74.5188 61.1967L74.3217 61.729C74.272 61.7089 74.2214 61.6952 74.1702 61.6881C74.1189 61.6811 74.0628 61.6786 74.0018 61.6806C73.8929 61.6843 73.8017 61.7039 73.7283 61.7393C73.6549 61.7746 73.5928 61.8238 73.5424 61.8868C73.4918 61.9499 73.4497 62.0246 73.4161 62.1112C73.3824 62.1977 73.3505 62.2963 73.3207 62.4068L73.1425 63.1291L73.8403 63.1055L73.7104 63.6223L73.0067 63.6462L72.3557 66.2703L71.7677 66.2902L72.4232 63.6659Z" fill="#FDF9F9"/>
<path d="M77.6936 63.4484C77.5368 63.4536 77.3888 63.4861 77.2498 63.5455C77.1106 63.605 76.9845 63.6838 76.8715 63.7817C76.7585 63.8798 76.6616 63.9969 76.5811 64.1332C76.5006 64.2697 76.4405 64.4173 76.4008 64.5763C76.3168 64.8945 76.3426 65.1466 76.4778 65.3326C76.6129 65.5186 76.8372 65.6063 77.1508 65.5957C77.4644 65.5851 77.7367 65.4806 77.9674 65.2822C78.1981 65.0839 78.3553 64.8256 78.4392 64.5073C78.4789 64.3483 78.4923 64.2023 78.4791 64.069C78.466 63.9359 78.4267 63.8233 78.3611 63.7313C78.2957 63.6394 78.2072 63.568 78.0959 63.5168C77.9845 63.4659 77.8504 63.4431 77.6936 63.4484ZM78.644 66.0315C78.5822 66.2701 78.4867 66.489 78.3576 66.6883C78.2285 66.8876 78.0718 67.0616 77.8876 67.2102C77.7034 67.3588 77.4966 67.4765 77.2673 67.5631C77.0379 67.6497 76.7967 67.6972 76.5435 67.7058C76.2468 67.7158 75.9853 67.6829 75.7591 67.6074C75.5328 67.5318 75.3353 67.3939 75.1669 67.1937L75.6876 66.6767C75.7993 66.8395 75.9342 66.9609 76.0921 67.0409C76.2501 67.1211 76.4423 67.1573 76.6689 67.1497C76.8866 67.1423 77.0753 67.104 77.2351 67.0352C77.3947 66.9662 77.5293 66.8795 77.6388 66.775C77.7482 66.6706 77.8365 66.5526 77.9034 66.4212C77.9704 66.2896 78.0222 66.1576 78.059 66.0249L78.1701 65.5613L78.1505 65.5619C77.9896 65.7557 77.8018 65.9012 77.5869 65.9982C77.3718 66.0954 77.1577 66.1474 76.9443 66.1546C76.7178 66.1622 76.5178 66.1286 76.344 66.0534C76.1702 65.9782 76.0316 65.8712 75.928 65.7324C75.8244 65.5934 75.7576 65.4271 75.7276 65.2331C75.6974 65.0393 75.7127 64.8274 75.7735 64.5974C75.8298 64.3679 75.9207 64.1513 76.0456 63.9476C76.1706 63.7442 76.3201 63.5649 76.4938 63.41C76.6676 63.2553 76.8627 63.1326 77.0791 63.042C77.2953 62.9515 77.5233 62.9021 77.7629 62.894C77.9719 62.8869 78.1638 62.9265 78.3385 63.0126C78.5132 63.0986 78.6367 63.2237 78.7093 63.3877L78.7224 63.3873L78.832 62.9367L79.42 62.9168L78.644 66.0315Z" fill="#FDF9F9"/>
<path d="M81.574 64.4605C81.4339 64.4652 81.2888 64.4778 81.1384 64.4982C80.9879 64.5187 80.8467 64.553 80.7149 64.6011C80.5832 64.6496 80.469 64.7146 80.3726 64.7968C80.2761 64.8789 80.2122 64.9819 80.1809 65.1055C80.1343 65.2868 80.1611 65.415 80.2613 65.4904C80.3617 65.5659 80.5146 65.6002 80.7202 65.5933C80.882 65.5878 81.0262 65.5555 81.1527 65.4964C81.2792 65.4375 81.3889 65.3626 81.482 65.2718C81.5752 65.181 81.6506 65.081 81.7087 64.9717C81.7668 64.8625 81.8085 64.7547 81.8335 64.6488L81.8889 64.4498L81.574 64.4605ZM80.2261 63.2707C80.4307 63.1105 80.6519 62.988 80.8892 62.9033C81.1267 62.8186 81.3541 62.7725 81.572 62.7652C81.7984 62.7575 81.9869 62.7797 82.1372 62.8315C82.2876 62.8834 82.403 62.9561 82.4835 63.0497C82.564 63.1435 82.6124 63.2524 82.6287 63.3767C82.6449 63.501 82.6366 63.6317 82.6037 63.7686L82.2008 65.3723C82.1708 65.4828 82.1463 65.5844 82.1271 65.6771C82.1079 65.7698 82.0937 65.8579 82.0842 65.9413L81.5615 65.959C81.5748 65.8798 81.5893 65.8004 81.6048 65.7211C81.6203 65.6416 81.6391 65.5622 81.6611 65.4825L81.648 65.483C81.464 65.6908 81.2724 65.8396 81.0735 65.9296C80.8745 66.0195 80.6575 66.0685 80.4223 66.0765C80.2785 66.0813 80.1468 66.066 80.0272 66.0306C79.9075 65.9953 79.8086 65.9395 79.7304 65.8632C79.6522 65.7871 79.5991 65.6914 79.571 65.5763C79.5428 65.4612 79.5483 65.3263 79.5876 65.1715C79.6366 64.9684 79.7233 64.7969 79.8477 64.6568C79.972 64.5168 80.1228 64.4012 80.3002 64.3097C80.4777 64.2182 80.6741 64.1504 80.8897 64.1057C81.1051 64.0613 81.3304 64.0349 81.5657 64.027L81.9969 64.0124L82.0315 63.8799C82.0535 63.8003 82.0592 63.7212 82.0486 63.6427C82.0379 63.5642 82.0102 63.4941 81.965 63.432C81.92 63.37 81.856 63.3218 81.7731 63.2873C81.6902 63.253 81.5856 63.2378 81.4594 63.242C81.346 63.2459 81.2435 63.2604 81.1518 63.2854C81.0601 63.3104 80.9763 63.3406 80.9007 63.3759C80.8252 63.4114 80.7531 63.4523 80.6852 63.4982C80.6169 63.5444 80.5501 63.5883 80.4847 63.6299L80.2261 63.2707Z" fill="#FDF9F9"/>
<path d="M83.6994 62.7722L84.2481 62.7536L84.1276 63.2439L84.1406 63.2435C84.1673 63.1988 84.2149 63.1424 84.2834 63.0743C84.3516 63.0063 84.4371 62.941 84.5396 62.8784C84.6421 62.8159 84.7555 62.7617 84.8798 62.7158C85.0043 62.6699 85.1362 62.6446 85.2756 62.6399C85.7238 62.6248 85.9957 62.8084 86.0911 63.1906C86.2432 62.9928 86.4226 62.8421 86.6292 62.7387C86.8356 62.6354 87.0324 62.5805 87.2191 62.5742C87.4582 62.5661 87.6437 62.5993 87.7761 62.6736C87.9083 62.7481 88.0006 62.849 88.0534 62.9764C88.106 63.1039 88.1285 63.2499 88.1206 63.4145C88.1128 63.579 88.086 63.7497 88.0399 63.9264L87.5918 65.7551L87.0038 65.775L87.4429 64.0254C87.4737 63.9061 87.4943 63.7915 87.5047 63.6816C87.5149 63.5718 87.5074 63.4757 87.482 63.3933C87.4566 63.311 87.4065 63.2459 87.3317 63.198C87.2567 63.1501 87.1475 63.1286 87.0038 63.1335C86.7206 63.1431 86.4962 63.2384 86.3303 63.4191C86.1645 63.5999 86.0463 63.8295 85.9756 64.1079L85.5468 65.8242L84.9588 65.8442L85.3664 64.2008C85.4051 64.0506 85.4324 63.9139 85.4486 63.7906C85.4647 63.6675 85.4616 63.5613 85.4392 63.4723C85.4166 63.3832 85.3691 63.3148 85.2965 63.2669C85.2238 63.2189 85.1156 63.1973 84.9718 63.2022C84.8674 63.2057 84.7604 63.2302 84.6511 63.2755C84.5418 63.3209 84.44 63.3867 84.3456 63.473C84.2511 63.5595 84.1661 63.6687 84.0906 63.8004C84.0148 63.9323 83.9539 64.0865 83.9079 64.2633L83.5018 65.8934L82.9138 65.9133L83.6994 62.7722Z" fill="#FDF9F9"/>
<path d="M91.2414 63.8181C91.2693 63.6859 91.2786 63.5651 91.2692 63.4558C91.2598 63.3467 91.229 63.2525 91.1767 63.173C91.1245 63.0939 91.0485 63.0329 90.9484 62.9903C90.8484 62.9476 90.7238 62.9288 90.5747 62.9339C90.4299 62.9387 90.2909 62.9709 90.1574 63.0302C90.0239 63.0894 89.9029 63.1648 89.7943 63.256C89.6856 63.3473 89.5944 63.4479 89.5208 63.5577C89.4472 63.6676 89.3978 63.7754 89.3728 63.8814L91.2414 63.8181ZM89.2536 64.3585C89.2207 64.4954 89.2198 64.6193 89.2508 64.7298C89.2818 64.8406 89.3354 64.934 89.4117 65.0102C89.4881 65.0866 89.5839 65.1447 89.6991 65.1846C89.8144 65.2244 89.9399 65.242 90.0754 65.2374C90.259 65.2313 90.429 65.1828 90.5851 65.0921C90.7414 65.0015 90.895 64.8835 91.0461 64.7382L91.3991 65.0678C90.9675 65.5075 90.4577 65.7372 89.8697 65.757C89.6257 65.7653 89.416 65.7307 89.2404 65.6535C89.0646 65.5762 88.9263 65.4659 88.8254 65.3224C88.7246 65.1791 88.6614 65.0083 88.6363 64.8098C88.6109 64.6113 88.629 64.3951 88.6902 64.1607C88.7471 63.9266 88.8414 63.7077 88.973 63.5039C89.1045 63.3001 89.2603 63.1219 89.4404 62.969C89.6204 62.8162 89.8186 62.6945 90.035 62.6038C90.2513 62.5134 90.4748 62.4642 90.7058 62.4563C90.9802 62.4471 91.2001 62.488 91.3656 62.5786C91.531 62.6694 91.6549 62.7912 91.7375 62.9439C91.82 63.0967 91.8632 63.2705 91.8671 63.4652C91.8711 63.6601 91.8486 63.859 91.7995 64.0622L91.7428 64.2743L89.2536 64.3585Z" fill="#FDF9F9"/>
<path d="M94.3451 63.1939C94.2984 63.108 94.2315 63.0367 94.1447 62.9806C94.0577 62.9243 93.9402 62.8988 93.7921 62.9037C93.6527 62.9085 93.5242 62.9424 93.4064 63.0055C93.2886 63.0686 93.2167 63.1577 93.1907 63.2724C93.1672 63.3652 93.1772 63.4394 93.2208 63.4948C93.2644 63.5503 93.3223 63.5943 93.3946 63.6268C93.4667 63.6595 93.5455 63.6832 93.6306 63.6978C93.7157 63.7124 93.7902 63.7252 93.8541 63.7362C93.9725 63.7629 94.0815 63.7964 94.1811 63.8368C94.2806 63.8773 94.3624 63.9315 94.4263 63.9994C94.4902 64.0674 94.5316 64.1513 94.5507 64.2514C94.5696 64.3516 94.5622 64.4745 94.5285 64.6201C94.4823 64.797 94.4074 64.9495 94.3041 65.0779C94.2006 65.2062 94.079 65.3121 93.9393 65.3958C93.7998 65.4793 93.6505 65.5413 93.492 65.5818C93.3333 65.6221 93.1778 65.6449 93.0254 65.6502C92.7683 65.6588 92.5539 65.6265 92.3823 65.5536C92.2104 65.4805 92.0733 65.3406 91.9709 65.1338L92.5028 64.7478C92.5746 64.8419 92.661 64.9243 92.762 64.9953C92.8629 65.0664 92.9988 65.099 93.1696 65.0932C93.3227 65.088 93.4731 65.0513 93.6204 64.9827C93.7677 64.9142 93.86 64.8115 93.8975 64.6743C93.9205 64.586 93.9123 64.514 93.8728 64.4583C93.8333 64.4028 93.7795 64.3597 93.711 64.3292C93.6426 64.2987 93.5668 64.2748 93.4838 64.258C93.4007 64.241 93.3294 64.227 93.2696 64.216C93.1505 64.1893 93.0385 64.158 92.9337 64.1222C92.8288 64.0863 92.7407 64.0367 92.6695 63.9734C92.5981 63.9101 92.5498 63.8286 92.524 63.7286C92.4984 63.6287 92.5049 63.5037 92.5437 63.3534C92.5839 63.1901 92.6534 63.0464 92.752 62.9225C92.8506 62.7988 92.9654 62.6952 93.0963 62.6119C93.2271 62.5286 93.369 62.4646 93.5216 62.4201C93.6741 62.3755 93.8224 62.3507 93.966 62.3459C94.1752 62.3388 94.3655 62.3719 94.5373 62.4449C94.7091 62.5179 94.8281 62.6453 94.8944 62.8271L94.3451 63.1939Z" fill="#FDF9F9"/>
<path d="M13.7107 63.6602C13.5534 63.6602 13.4235 63.5923 13.4182 63.5061C13.4129 63.4182 13.5395 63.3445 13.7011 63.3415L28.083 63.0806C28.2458 63.0785 28.38 63.1467 28.3853 63.2346C28.3907 63.3225 28.2641 63.3962 28.1025 63.3991L13.7205 63.6601C13.7173 63.6601 13.7139 63.6602 13.7107 63.6602Z" fill="#FDF9F9"/>
<defs>
<filter id="filter0_d_134_1345" x="36.7874" y="22.0984" width="42.1632" height="19.9706" filterUnits="userSpaceOnUse" color-interpolation-filters="sRGB">
<feFlood flood-opacity="0" result="BackgroundImageFix"/>
<feColorMatrix in="SourceAlpha" type="matrix" values="0 0 0 0 0 0 0 0 0 0 0 0 0 0 0 0 0 0 127 0" result="hardAlpha"/>
<feOffset dy="1"/>
<feComposite in2="hardAlpha" operator="out"/>
<feColorMatrix type="matrix" values="0 0 0 0 0.441667 0 0 0 0 0.441667 0 0 0 0 0.441667 0 0 0 1 0"/>
<feBlend mode="normal" in2="BackgroundImageFix" result="effect1_dropShadow_134_1345"/>
<feBlend mode="normal" in="SourceGraphic" in2="effect1_dropShadow_134_1345" result="shape"/>
</filter>
</defs>
</svg>
