<svg width="56" height="40" viewBox="0 0 56 40" fill="none" xmlns="http://www.w3.org/2000/svg">
<path d="M39.8333 24.3333H38.5167L38.05 23.8833C39.7398 21.9234 40.6685 19.4212 40.6667 16.8333C40.6667 14.6907 40.0313 12.5962 38.8409 10.8147C37.6505 9.03313 35.9586 7.64459 33.9791 6.82464C31.9995 6.00469 29.8213 5.79016 27.7199 6.20816C25.6184 6.62617 23.6881 7.65795 22.173 9.17301C20.6579 10.6881 19.6262 12.6184 19.2082 14.7199C18.7902 16.8213 19.0047 18.9995 19.8246 20.9791C20.6446 22.9586 22.0331 24.6505 23.8147 25.8409C25.5962 27.0313 27.6907 27.6667 29.8333 27.6667C32.5167 27.6667 34.9833 26.6833 36.8833 25.05L37.3333 25.5167V26.8333L45.6667 35.15L48.15 32.6667L39.8333 24.3333ZM29.8333 24.3333C25.6833 24.3333 22.3333 20.9833 22.3333 16.8333C22.3333 12.6833 25.6833 9.33334 29.8333 9.33334C33.9833 9.33334 37.3333 12.6833 37.3333 16.8333C37.3333 20.9833 33.9833 24.3333 29.8333 24.3333Z" fill="white"/>
</svg>
