<svg width="26" height="25" viewBox="0 0 26 25" fill="none" xmlns="http://www.w3.org/2000/svg">
<path d="M13 0C5.82098 0 0 5.5971 0 12.5C0 19.4029 5.82098 25 13 25C20.179 25 26 19.4029 26 12.5C26 5.5971 20.179 0 13 0ZM19.2475 9.42243C19.2562 9.55357 19.2562 9.69029 19.2562 9.82422C19.2562 13.9202 16.0121 18.6384 10.0837 18.6384C8.25558 18.6384 6.56094 18.1278 5.13326 17.2489C5.39442 17.2768 5.64397 17.2879 5.91094 17.2879C7.41987 17.2879 8.80692 16.7969 9.9125 15.9654C8.49643 15.9375 7.3067 15.0446 6.90045 13.817C7.39665 13.8867 7.84353 13.8867 8.35424 13.7612C7.6251 13.6187 6.96973 13.238 6.49947 12.6835C6.02921 12.1291 5.77306 11.4353 5.77455 10.7199V10.6808C6.20112 10.9124 6.70312 11.0547 7.22835 11.0742C6.78682 10.7913 6.42472 10.408 6.17416 9.95823C5.9236 9.50851 5.79232 9.00628 5.79196 8.49609C5.79196 7.91853 5.94866 7.39118 6.23013 6.93359C7.03945 7.89156 8.04935 8.67506 9.19421 9.23316C10.3391 9.79126 11.5932 10.1115 12.8752 10.173C12.4196 8.06641 14.0562 6.36161 16.0237 6.36161C16.9522 6.36161 17.7879 6.73549 18.377 7.33817C19.1054 7.20703 19.8018 6.94475 20.4228 6.59319C20.1819 7.31027 19.677 7.91574 19.0067 8.29799C19.6567 8.23103 20.2835 8.05804 20.8638 7.81529C20.4257 8.43471 19.8772 8.98438 19.2475 9.42243Z" fill="#FFFDFA"/>
</svg>
